<?xml version="1.0" ?><svg height="512px" version="1.1" viewBox="0 0 512 512" width="512px" xmlns="http://www.w3.org/2000/svg" xmlns:xlink="http://www.w3.org/1999/xlink"><title/><desc/><defs/><g fill="none" fill-rule="evenodd" id="SVG" stroke="none" stroke-width="1"><g id="Baseball"><g id="8"><path d="M255.321409,14.9698294 C120.642484,14.9698294 11.4642149,123.382947 11.4642149,257.118006 C11.4642149,390.853065 120.642484,499.266182 255.321409,499.266182 C390.000334,499.266182 499.178603,390.853065 499.178603,257.118006 C499.178603,123.382947 390.000334,14.9698294 255.321409,14.9698294" fill="#FEFEFE" id="Fill-1"/><path d="M394.130722,58.2462941 C419.707797,96.5517059 434.639857,142.468118 434.639857,191.875118 C434.639857,325.610176 325.461588,434.023294 190.782663,434.023294 C141.034603,434.023294 94.7864836,419.195882 56.2183642,393.790471 C99.8835582,459.178294 174.635558,502.317412 259.558782,502.317412 C394.237707,502.317412 503.415976,393.904294 503.415976,260.169235 C503.415976,175.833588 459.980036,101.605471 394.130722,58.2462941" fill="#010202" id="Fill-38" opacity="0.3"/><path d="M255.320645,26.3529412 C127.175451,26.3529412 22.9261373,129.871647 22.9261373,257.118765 C22.9261373,384.358294 127.175451,487.884588 255.320645,487.884588 C383.465839,487.884588 487.715152,384.358294 487.715152,257.118765 C487.715152,129.871647 383.465839,26.3529412 255.320645,26.3529412 M255.320645,510.649294 C114.535928,510.649294 0.000764179104,396.909235 0.000764179104,257.118765 C0.000764179104,117.320706 114.535928,3.58823529 255.320645,3.58823529 C396.105361,3.58823529 510.640525,117.320706 510.640525,257.118765 C510.640525,396.909235 396.105361,510.649294 255.320645,510.649294" fill="#2E2E30" id="Fill-3"/><path d="M65.7163463,407.202676 C62.4303761,407.202676 59.1826149,405.806441 56.913003,403.112618 C52.8475701,398.2865 53.4971224,391.108029 58.3649433,387.086265 C80.9158687,368.388853 133.369122,318.314088 133.369122,257.114971 C133.369122,195.923441 80.9158687,145.841088 58.3649433,127.151265 C53.4971224,123.121912 52.8475701,115.943441 56.913003,111.117324 C60.970794,106.298794 68.1922866,105.638618 73.0524657,109.675559 C104.139272,135.437618 156.294496,188.858794 156.294496,257.114971 C156.294496,325.378735 104.139272,378.792324 73.0524657,404.554382 C70.9127642,406.337618 68.3069134,407.202676 65.7163463,407.202676" fill="#2E2E30" id="Fill-8"/><path d="M165.881122,257.116488 L122.414615,257.116488" fill="#FEFEFE" id="Fill-10"/><path d="M165.880358,268.498841 L122.413851,268.498841 C116.078806,268.498841 110.951164,263.407135 110.951164,257.116488 C110.951164,250.825841 116.078806,245.734135 122.413851,245.734135 L165.880358,245.734135 C172.207761,245.734135 177.343045,250.825841 177.343045,257.116488 C177.343045,263.407135 172.207761,268.498841 165.880358,268.498841" fill="#2E2E30" id="Fill-12"/><path d="M146.875224,347.181253 L109.048358,325.926606" fill="#FEFEFE" id="Fill-14"/><path d="M146.866054,358.568159 C144.947964,358.568159 143.014591,358.0901 141.234054,357.088453 L103.407188,335.833806 C97.8898149,332.737806 95.9488,325.794571 99.0666507,320.315865 C102.192143,314.844747 109.199666,312.9401 114.686472,316.020924 L152.513337,337.275571 C158.03071,340.371571 159.971725,347.314806 156.853875,352.785924 C154.737099,356.488982 150.855069,358.568159 146.866054,358.568159" fill="#2E2E30" id="Fill-16"/><path d="M146.875224,167.052482 L109.048358,188.307129" fill="#FEFEFE" id="Fill-18"/><path d="M109.052179,199.697071 C105.063164,199.697071 101.181134,197.617894 99.0643582,193.914835 C95.9465075,188.443718 97.8875224,181.500482 103.404896,178.404482 L141.231761,157.149835 C146.703284,154.069012 153.72609,155.966071 156.851582,161.444776 C159.969433,166.923482 158.028418,173.866718 152.511045,176.962718 L114.684179,198.217365 C112.911284,199.219012 110.970269,199.697071 109.052179,199.697071" fill="#2E2E30" id="Fill-20"/><path d="M444.925707,407.202676 C442.33514,407.202676 439.72929,406.337618 437.589588,404.554382 C406.502782,378.792324 354.347558,325.378735 354.347558,257.114971 C354.347558,188.858794 406.502782,135.437618 437.589588,109.675559 C442.449767,105.638618 449.67126,106.298794 453.729051,111.117324 C457.794484,115.943441 457.144931,123.121912 452.27711,127.151265 C429.726185,145.841088 377.272931,195.923441 377.272931,257.114971 C377.272931,318.314088 429.726185,368.388853 452.27711,387.086265 C457.144931,391.108029 457.794484,398.2865 453.729051,403.112618 C451.459439,405.806441 448.211678,407.202676 444.925707,407.202676" fill="#2E2E30" id="Fill-24"/><path d="M344.760931,257.116488 L388.227439,257.116488" fill="#FEFEFE" id="Fill-26"/><path d="M388.23126,268.498841 L344.764752,268.498841 C338.429707,268.498841 333.302066,263.407135 333.302066,257.116488 C333.302066,250.825841 338.429707,245.734135 344.764752,245.734135 L388.23126,245.734135 C394.558663,245.734135 399.693946,250.825841 399.693946,257.116488 C399.693946,263.407135 394.558663,268.498841 388.23126,268.498841" fill="#2E2E30" id="Fill-28"/><path d="M363.76683,347.181253 L401.593696,325.926606" fill="#FEFEFE" id="Fill-30"/><path d="M363.776,358.568159 C359.786985,358.568159 355.904955,356.488982 353.788179,352.785924 C350.670328,347.314806 352.611343,340.371571 358.128716,337.275571 L395.955582,316.020924 C401.427104,312.932512 408.44991,314.837159 411.575403,320.315865 C414.693254,325.794571 412.752239,332.737806 407.234866,335.833806 L369.408,357.088453 C367.635104,358.0901 365.69409,358.568159 363.776,358.568159" fill="#2E2E30" id="Fill-32"/><path d="M363.76683,167.052482 L401.593696,188.307129" fill="#FEFEFE" id="Fill-34"/><path d="M401.589875,199.697071 C399.671785,199.697071 397.738412,199.219012 395.957875,198.217365 L358.131009,176.962718 C352.613636,173.866718 350.672621,166.923482 353.790472,161.444776 C356.915964,155.966071 363.923487,154.0766 369.410293,157.149835 L407.237158,178.404482 C412.754531,181.500482 414.695546,188.443718 411.577696,193.914835 C409.460919,197.617894 405.57889,199.697071 401.589875,199.697071" fill="#2E2E30" id="Fill-36"/></g></g></g></svg>