<?xml version="1.0" ?><svg height="512px" version="1.1" viewBox="0 0 512 512" width="512px" xmlns="http://www.w3.org/2000/svg" xmlns:xlink="http://www.w3.org/1999/xlink"><title/><desc/><defs/><g fill="none" fill-rule="evenodd" id="SVG" stroke="none" stroke-width="1"><g id="Basketball"><g id="6"><path d="M82.7697672,85.7771706 C-12.4622328,180.341759 -12.4622328,333.662053 82.7697672,428.226641 C178.001767,522.791229 332.404155,522.791229 427.636155,428.226641 C522.868155,333.662053 522.868155,180.341759 427.636155,85.7771706 C332.404155,-8.78741765 178.001767,-8.78741765 82.7697672,85.7771706" fill="#D28F52" id="Fill-1"/><path d="M142.737958,145.325088 C57.7383164,229.729029 48.6751522,360.906853 115.403272,455.365206 C210.535928,521.625676 342.63957,512.626029 427.63157,428.222088 C512.631212,343.825735 521.702018,212.647912 454.966257,118.181971 C359.841242,51.9215 227.7376,60.9211471 142.737958,145.325088" fill="#D28F52" id="Fill-6"/><path d="M389.771845,57.1528294 C415.348919,95.4582412 430.280979,141.374653 430.280979,190.781653 C430.280979,324.516712 321.10271,432.929829 186.423785,432.929829 C136.675725,432.929829 90.427606,418.102418 51.8594866,392.697006 C95.5246806,458.084829 170.276681,501.223947 255.199904,501.223947 C389.87883,501.223947 499.057099,392.810829 499.057099,259.075771 C499.057099,174.740124 455.621158,100.512006 389.771845,57.1528294" fill="#010202" id="Fill-16" opacity="0.3"/><path d="M255.201433,26.3453529 C195.694806,26.3453529 136.180537,48.8368824 90.8723582,93.8275294 C0.263641791,183.801235 0.263641791,330.201059 90.8723582,420.174765 C181.488716,510.156059 328.914149,510.156059 419.530507,420.174765 C510.139224,330.201059 510.139224,183.801235 419.530507,93.8275294 C374.222328,48.8368824 314.70806,26.3453529 255.201433,26.3453529 M255.201433,510.414059 C189.818269,510.414059 124.442746,485.699176 74.6641194,436.269412 C-24.8854925,337.425059 -24.8854925,176.577235 74.6641194,77.7252941 C174.213731,-21.1266471 336.189134,-21.1266471 435.738746,77.7252941 C535.288358,176.577235 535.288358,337.425059 435.738746,436.269412 C385.960119,485.699176 320.584597,510.414059 255.201433,510.414059" fill="#2E2E30" id="Fill-3"/><path d="M142.738722,145.326606 L142.81514,145.326606 L142.738722,145.326606 Z M123.641887,447.186606 C215.939439,510.313135 340.057409,499.090135 419.532036,420.180076 C499.006663,341.254841 510.316513,218.006724 446.72917,126.363606 C354.423976,63.2294882 230.306006,74.4600765 150.846663,153.377724 C71.364394,232.295371 60.0621851,355.543488 123.641887,447.186606 L123.641887,447.186606 Z M255.195319,510.684959 C204.308633,510.684959 153.146842,495.561606 108.824454,464.685076 C107.731678,463.926253 106.784096,462.985312 106.019916,461.900194 C34.7525731,361.022194 46.788394,224.502253 134.630782,137.275488 C222.465528,50.0639 359.956633,38.1048412 461.554245,108.865135 C462.639379,109.623959 463.586961,110.5649 464.35114,111.650018 C535.618484,212.520429 523.582663,349.047959 435.740275,436.274724 C386.22911,485.4389 320.937648,510.684959 255.195319,510.684959 L255.195319,510.684959 Z" fill="#2E2E30" id="Fill-8"/><path d="M427.634627,439.607476 C424.700179,439.607476 421.765731,438.499594 419.526687,436.276241 L74.6679403,93.8267706 C70.1898507,89.3800647 70.1898507,82.1712412 74.6679403,77.7321235 C79.1383881,73.2854176 86.3980896,73.2854176 90.8761791,77.7321235 L435.742567,420.174006 C440.213015,424.620712 440.213015,431.829535 435.742567,436.276241 C433.503522,438.499594 430.569075,439.607476 427.634627,439.607476" fill="#2E2E30" id="Fill-10"/><path d="M247.179081,510.339694 C244.940036,510.339694 242.685707,509.694694 240.706484,508.343988 C189.659319,473.597459 173.290603,444.018518 137.710424,322.1894 C105.064693,210.422282 28.7919761,208.221694 25.5594985,208.183753 C19.2550209,208.107871 14.1655881,202.9934 14.203797,196.725518 C14.2496478,190.472812 19.3390806,185.419047 25.6359164,185.419047 L25.6435582,185.419047 C29.5561552,185.426635 122.090603,186.974635 159.726424,315.845635 C195.810961,439.404871 210.658961,460.295282 253.666961,489.570694 C258.886304,493.121988 260.223618,500.2094 256.639618,505.392165 C254.415857,508.609576 250.831857,510.339694 247.179081,510.339694" fill="#2E2E30" id="Fill-12"/><path d="M498.872931,260.4242 C495.220155,260.4242 491.636155,258.694082 489.412394,255.476671 C459.930364,212.770082 438.892513,198.026141 314.46123,162.194494 C184.680693,124.814847 183.114125,32.9440824 183.114125,29.0513176 C183.106484,22.7682588 188.241767,17.6689647 194.56917,17.6613765 L194.576812,17.6613765 C200.88129,17.6613765 206.008931,22.7227294 206.039499,28.9830235 C206.085349,32.3597882 208.423737,107.953788 320.849767,140.332788 C443.546364,175.663612 473.326424,191.917612 508.318185,242.607024 C511.902185,247.789788 510.564872,254.8772 505.345528,258.428494 C503.366304,259.7792 501.111976,260.4242 498.872931,260.4242" fill="#2E2E30" id="Fill-14"/></g></g></g></svg>