<?xml version="1.0" ?><svg height="512px" version="1.1" viewBox="0 0 512 512" width="512px" xmlns="http://www.w3.org/2000/svg" xmlns:xlink="http://www.w3.org/1999/xlink"><title/><desc/><defs/><g fill="none" fill-rule="evenodd" id="SVG" stroke="none" stroke-width="1"><g id="Rugby"><g id="12"><path d="M494.616454,19.2253118 C494.616454,19.2253118 245.753887,-14.9900412 113.520334,116.316782 C-18.7208597,247.631194 15.7359761,494.749665 15.7359761,494.749665 C15.7359761,494.749665 264.598543,528.965018 396.839737,397.650606 C529.07329,266.343782 494.616454,19.2253118 494.616454,19.2253118" fill="#D28F52" id="Fill-1"/><path d="M352.890269,22.0094353 C430.194627,14.6640235 490.847522,22.9731412 490.847522,22.9731412 C490.847522,22.9731412 499.207642,83.2009647 491.810388,159.955965 L352.890269,22.0094353 Z" fill="#72553F" id="Fill-10"/><path d="M14.7708179,357.759253 C7.37356418,434.521841 15.7413254,494.749665 15.7413254,494.749665 C15.7413254,494.749665 76.3942209,503.051194 153.690937,495.705782 L14.7708179,357.759253 Z" fill="#72553F" id="Fill-6"/><path d="M396.836681,321.770529 C264.595487,453.084941 15.7405612,418.862 15.7405612,418.862 C15.7405612,418.862 13.9447403,405.833 12.7449791,384.327941 C9.22975522,447.970471 15.7405612,494.744353 15.7405612,494.744353 C15.7405612,494.744353 264.595487,528.967294 396.836681,397.652882 C498.831666,296.372706 501.651487,126.305176 497.608979,53.7616471 C493.039188,136.435471 471.550472,247.580353 396.836681,321.770529" fill="#010202" id="Fill-30" opacity="0.3"/><g fill="#2E2E30" id="Group-5" transform="translate(0.000000, 1.965871)"><path d="M26.1173493,482.475176 C70.9517373,486.815647 275.858722,499.708059 388.727976,387.637412 C501.589588,275.566765 488.613827,72.1185882 484.235081,27.5680588 C439.377767,23.2124118 234.493707,10.32 121.624454,122.405824 C8.76284179,234.468882 21.738603,437.924647 26.1173493,482.475176 M90.1784836,508.411765 C47.2316179,508.411765 17.6349612,504.534176 14.1655881,504.056118 C9.08379701,503.358 5.0871403,499.389353 4.38409552,494.343176 C2.94743881,484.023176 -29.3085612,240.084176 105.416215,106.311176 C240.133349,-27.4694118 485.771081,4.53776471 496.194484,5.98711765 C501.276275,6.68523529 505.26529,10.6462941 505.968334,15.6924706 C507.404991,26.0200588 539.660991,269.959059 404.936215,403.732059 C315.137528,492.901412 176.026364,508.411765 90.1784836,508.411765" id="Fill-3"/></g><path d="M26.1020657,484.456224 C42.6312597,486.080106 80.8860657,488.918106 127.944215,486.239459 L24.3062448,383.327812 C21.6163343,430.086518 24.4667224,468.050459 26.1020657,484.456224 M88.2527522,510.149988 C44.9849313,510.149988 15.9079164,506.264812 14.1655881,506.029576 C9.07615522,505.331459 5.07949851,501.362812 4.37645373,496.309047 C4.03257313,493.789753 -4.08300896,433.865459 3.36009552,356.677929 C3.78803582,352.291929 6.72248358,348.543341 10.9025433,347.048459 C15.0596776,345.576341 19.7364537,346.593165 22.8772299,349.711929 L161.797349,487.658459 C164.938125,490.769635 165.985051,495.406047 164.479618,499.549224 C162.974185,503.699988 159.19914,506.613871 154.782185,507.038812 C130.496573,509.345635 107.907439,510.149988 88.2527522,510.149988" fill="#2E2E30" id="Fill-8"/><path d="M378.639284,31.4810706 L482.284896,134.392718 C484.974806,87.5733059 482.124418,49.6473059 480.481433,33.2643059 C463.967522,31.6404235 425.750925,28.8024235 378.639284,31.4810706 M491.814209,171.339835 C488.826269,171.339835 485.891821,170.171247 483.706269,168.001012 L344.786149,30.0620706 C341.645373,26.9433059 340.598448,22.3068941 342.111522,18.1637176 C343.609313,14.0129529 347.384358,11.0990706 351.801313,10.6817176 C429.541254,3.29836471 489.880836,11.3418941 492.41791,11.6909529 C497.507343,12.3814824 501.504,16.3577176 502.207045,21.4114824 C502.550925,23.9231882 510.658866,83.8474824 503.223403,161.035012 C502.795463,165.421012 499.861015,169.177188 495.680955,170.664482 C494.42006,171.112188 493.105672,171.339835 491.814209,171.339835" fill="#2E2E30" id="Fill-12"/><path d="M310.181827,195.587282 L193.346484,311.603812" fill="#72553F" id="Fill-14"/><path d="M193.348776,322.991476 C190.414328,322.991476 187.479881,321.883594 185.240836,319.660241 C180.770388,315.213535 180.770388,308.004712 185.240836,303.558006 L302.083821,187.533888 C306.554269,183.087182 313.81397,183.087182 318.29206,187.533888 C322.770149,191.980594 322.770149,199.189418 318.29206,203.636124 L201.456716,319.660241 C199.217672,321.883594 196.283224,322.991476 193.348776,322.991476" fill="#2E2E30" id="Fill-16"/><path d="M231.282627,233.259835 L272.242627,273.932776" fill="#72553F" id="Fill-18"/><path d="M272.244155,285.316647 C269.309707,285.316647 266.37526,284.208765 264.136215,281.985412 L223.176215,241.304882 C218.698125,236.858176 218.698125,229.656941 223.176215,225.210235 C227.654304,220.763529 234.906364,220.763529 239.384454,225.210235 L280.352096,265.883176 C284.822543,270.329882 284.822543,277.538706 280.352096,281.985412 C278.113051,284.208765 275.178603,285.316647 272.244155,285.316647" fill="#2E2E30" id="Fill-20"/><path d="M271.845254,192.981482 L312.805254,233.654424" fill="#72553F" id="Fill-22"/><path d="M312.803725,245.041329 C309.869278,245.041329 306.93483,243.933447 304.695785,241.710094 L263.743427,201.029565 C259.265337,196.582859 259.265337,189.381624 263.743427,184.934918 C268.221516,180.488212 275.473576,180.488212 279.951666,184.934918 L320.911666,225.607859 C325.382113,230.054565 325.382113,237.263388 320.911666,241.710094 C318.672621,243.933447 315.738173,245.041329 312.803725,245.041329" fill="#2E2E30" id="Fill-24"/><path d="M190.720764,273.537429 L231.680764,314.210371" fill="#72553F" id="Fill-26"/><path d="M231.684585,325.591965 C228.750137,325.591965 225.81569,324.484082 223.576645,322.260729 L182.616645,281.5802 C178.138555,277.133494 178.138555,269.932259 182.616645,265.485553 C187.094734,261.038847 194.346794,261.038847 198.824884,265.485553 L239.792525,306.158494 C244.262973,310.6052 244.262973,317.814024 239.792525,322.260729 C237.553481,324.484082 234.619033,325.591965 231.684585,325.591965" fill="#2E2E30" id="Fill-28"/></g></g></g></svg>