<?xml version="1.0" ?><svg height="512px" version="1.1" viewBox="0 0 512 512" width="512px" xmlns="http://www.w3.org/2000/svg" xmlns:xlink="http://www.w3.org/1999/xlink"><title/><desc/><defs><polygon id="path-1" points="0.000758208955 508.411765 506.642806 508.411765 506.642806 1.35222353 0.000758208955 1.35222353 0.000758208955 508.411765"/><polygon id="path-3" points="0 0.403753108 0 172.289365 94.7225473 172.289365 94.7225473 0.403753108 2.05512949e-19 0.403753108"/></defs><g fill="none" fill-rule="evenodd" id="SVG" stroke="none" stroke-width="1"><g id="Soccer"><g id="11"><path d="M253.323678,499.266182 C386.950424,499.266182 495.275737,390.853065 495.275737,257.118006 C495.275737,123.382947 386.950424,14.9698294 253.323678,14.9698294 C119.696931,14.9698294 11.3716179,123.382947 11.3716179,257.118006 C11.3716179,390.853065 119.696931,499.266182 253.323678,499.266182" fill="#FEFEFE" id="Fill-1"/><path d="M349.383445,34.8525235 L364.926728,115.060171 L456.950549,126.412171 C431.103206,86.1565824 393.700758,54.0659353 349.383445,34.8525235" fill="#4C4C4C" id="Fill-14"/><path d="M455.048961,390.794635 C480.448961,352.481635 495.271946,306.542459 495.271946,257.120282 C495.271946,251.922341 495.052066,246.785106 494.733618,241.670635 L423.29517,293.930812 L455.048961,390.794635 Z" fill="#4C4C4C" id="Fill-40"/><path d="M340.698161,482.921882 L255.020549,423.536353 L173.460012,485.699176 C198.473325,494.456 225.329087,499.266941 253.322161,499.266941 C284.143355,499.266941 313.584609,493.439176 340.698161,482.921882" fill="#4C4C4C" id="Fill-18"/><path d="M389.233391,56.3143294 C414.610645,94.6197412 429.426048,140.536153 429.426048,189.943153 C429.426048,323.678212 321.100734,432.091329 187.473988,432.091329 C138.114585,432.091329 92.2277791,417.263918 53.9609731,391.858506 C97.2850328,457.246329 171.453033,500.385447 255.712794,500.385447 C389.33954,500.385447 497.664854,391.972329 497.664854,258.237271 C497.664854,173.901624 454.568257,99.6735059 389.233391,56.3143294" fill="#010202" id="Fill-53" opacity="0.3"/><g id="Group-5" transform="translate(0.000000, 2.236012)"><mask fill="white" id="mask-2"><use xlink:href="#path-1"/></mask><g id="Clip-4"/><path d="M253.325952,24.1169294 C126.181893,24.1169294 22.7470269,127.635635 22.7470269,254.882753 C22.7470269,382.122282 126.181893,485.648576 253.325952,485.648576 C380.470012,485.648576 483.897296,382.122282 483.897296,254.882753 C483.897296,127.635635 380.470012,24.1169294 253.325952,24.1169294 M253.325952,508.413282 C113.641116,508.413282 0.000758208955,394.673224 0.000758208955,254.882753 C0.000758208955,115.084694 113.641116,1.35222353 253.325952,1.35222353 C393.010788,1.35222353 506.643564,115.084694 506.643564,254.882753 C506.643564,394.673224 393.010788,508.413282 253.325952,508.413282" fill="#2E2E30" id="Fill-3" mask="url(#mask-2)"/></g><polygon fill="#4C4C4C" id="Fill-6" points="253.323678 347.048459 158.84326 278.352165 194.934006 167.192106 311.713349 167.192106 347.804096 278.352165"/><path d="M172.218824,273.997276 L253.324436,332.973041 L334.43763,273.997276 L303.457212,178.575218 L203.19166,178.575218 L172.218824,273.997276 Z M253.324436,358.431571 C250.98157,358.431571 248.631122,357.7031 246.637033,356.261335 L152.156615,287.557453 C148.176018,284.658747 146.507958,279.521512 148.031958,274.824394 L184.10754,163.671924 C185.639122,158.982394 190.006406,155.810512 194.927182,155.810512 L311.714107,155.810512 C316.642466,155.810512 321.009749,158.982394 322.533749,163.671924 L358.624496,274.824394 C360.140913,279.521512 358.472854,284.651159 354.492257,287.557453 L260.011839,356.261335 C258.017749,357.7031 255.674884,358.431571 253.324436,358.431571 L253.324436,358.431571 Z" fill="#2E2E30" id="Fill-8"/><path d="M171.330203,29.2599941 C123.335576,46.5611706 82.4074567,78.6138765 53.9594567,119.954582 L152.41289,111.319171 L171.330203,29.2599941 Z" fill="#4C4C4C" id="Fill-10"/><path d="M155.277403,48.2472765 C126.207672,61.9971588 99.988806,81.9390412 78.8499403,106.342806 L143.18397,100.704747 L155.277403,48.2472765 Z M53.9579403,131.338453 C49.9318507,131.338453 46.1711343,129.198571 44.1315522,125.685218 C41.91,121.875924 42.0919701,117.125688 44.5864776,113.498512 C74.9224179,69.4336294 117.42003,36.5993353 167.469403,18.5545118 C171.381761,17.1355118 175.764209,17.9778059 178.880448,20.7475118 C181.989104,23.5172176 183.346299,27.7590412 182.413701,31.8187471 L163.496388,113.877924 C162.381821,118.681276 158.310239,122.224982 153.404627,122.657512 L54.951194,131.292924 C54.6175821,131.323276 54.2839701,131.338453 53.9579403,131.338453 L53.9579403,131.338453 Z" fill="#2E2E30" id="Fill-12"/><path d="M374.513522,104.777353 L432.493761,111.925471 C413.788746,88.7737647 390.898418,69.5451765 364.899433,55.1578824 L374.513522,104.777353 Z M456.953582,137.801353 C456.498657,137.801353 456.028567,137.771 455.558478,137.710294 L363.534657,126.358294 C358.644209,125.758824 354.701522,122.070941 353.761343,117.229647 L338.21806,37.022 C337.414358,32.8712353 338.976269,28.6218235 342.259313,25.9811176 C345.557522,23.3404118 350.030955,22.7257647 353.905403,24.4103529 C400.201642,44.4812353 439.143254,77.6266471 466.522179,120.264941 C468.902955,123.975588 468.925701,128.733412 466.582836,132.474412 C464.482597,135.813235 460.835612,137.801353 456.953582,137.801353 L456.953582,137.801353 Z" fill="#2E2E30" id="Fill-16"/><g fill="#2E2E30" id="Group-22" transform="translate(159.223881, 412.000718)"><path d="M38.9249313,69.1910471 C77.3509612,78.6763412 118.294245,78.0237529 156.318424,67.3395176 L96.1090507,25.5966353 L38.9249313,69.1910471 Z M94.099797,98.6485765 C65.5380657,98.6485765 37.4009313,93.8679882 10.4845134,84.4434 C6.53424478,83.0547529 3.66063284,79.6172824 3.00857313,75.4741059 C2.34893134,71.3385176 4.01699104,67.1801647 7.34552836,64.6381059 L88.8984836,2.47528235 C92.8184239,-0.522070588 98.2092896,-0.628305882 102.265707,2.17175294 L187.950901,61.5648706 C191.408334,63.9703412 193.258364,68.0831647 192.765528,72.2642824 C192.272693,76.4454 189.50523,80.0194588 185.58529,81.5371059 C156.318424,92.8891059 125.542722,98.6485765 94.099797,98.6485765 L94.099797,98.6485765 Z" id="Fill-20"/></g><path d="M83.3521851,293.930812 L11.9137373,241.670635 C11.5877075,246.785106 11.375409,251.922341 11.375409,257.120282 C11.375409,306.542459 26.198394,352.481635 51.598394,390.794635 L83.3521851,293.930812 Z" fill="#4C4C4C" id="Fill-23"/><g id="Group-27" transform="translate(0.000000, 229.883071)"><mask fill="white" id="mask-4"><use xlink:href="#path-3"/></mask><g id="Clip-26"/><path d="M22.8425612,33.8799529 C23.8358149,68.8161882 32.646203,102.7356 48.6216657,133.483129 L69.9728299,68.3608941 L22.8425612,33.8799529 Z M51.6014269,172.289365 C47.8255463,172.289365 44.2468,170.407482 42.1238149,167.197659 C14.5629194,125.644482 -0.00227462687,77.2467176 -0.00227462687,27.2326588 C-0.00227462687,21.7994824 0.232770149,16.4270118 0.56638209,11.0848941 C0.824173134,6.93412941 3.32626269,3.25383529 7.0869791,1.48577647 C10.8249493,-0.282282353 15.2680537,0.135070588 18.6193373,2.60124706 L90.0577851,54.8614235 C94.0459642,57.7677176 95.6912776,62.9125412 94.1521134,67.5944824 L62.4059045,164.458306 C61.0487104,168.601482 57.4396358,171.598835 53.1254269,172.190718 C52.6174269,172.251424 52.1018448,172.289365 51.6014269,172.289365 L51.6014269,172.289365 Z" fill="#2E2E30" id="Fill-25" mask="url(#mask-4)"/></g><path d="M194.930973,167.189829 L154.844466,114.610947" fill="#FEFEFE" id="Fill-28"/><path d="M194.935522,178.5737 C191.508418,178.5737 188.126806,177.033288 185.89009,174.096641 L145.811164,121.517759 C141.997373,116.517112 142.960299,109.376582 147.949313,105.567288 C152.961075,101.750406 160.080657,102.714112 163.886866,107.714759 L203.965791,160.286053 C207.779582,165.2867 206.816657,172.427229 201.827642,176.236524 C199.765313,177.814876 197.339045,178.5737 194.935522,178.5737" fill="#2E2E30" id="Fill-30"/><path d="M311.715624,167.189829 L364.926728,115.066241" fill="#FEFEFE" id="Fill-32"/><path d="M311.71714,178.5737 C308.760125,178.5737 305.818275,177.435465 303.58914,175.151406 C299.19911,170.666759 299.267349,163.457935 303.763528,159.056759 L356.974633,106.933171 C361.448066,102.531994 368.658633,102.607876 373.056245,107.100112 C377.446275,111.592347 377.370454,118.801171 372.874275,123.194759 L319.670752,175.325935 C317.464364,177.488582 314.590752,178.5737 311.71714,178.5737" fill="#2E2E30" id="Fill-34"/><path d="M158.842501,278.348371 L83.3552179,293.927018" fill="#FEFEFE" id="Fill-36"/><path d="M83.3362627,305.313165 C78.0591284,305.313165 73.3203224,301.610106 72.2133373,296.230047 C70.9395463,290.0684 74.9049791,284.050929 81.0540537,282.783694 L156.548919,267.205047 C162.644919,265.915047 168.718173,269.891282 169.984382,276.052929 C171.258173,282.206988 167.29274,288.224459 161.143666,289.491694 L85.6488,305.077929 C84.8754269,305.237282 84.1020537,305.313165 83.3362627,305.313165" fill="#2E2E30" id="Fill-38"/><g fill="#2E2E30" id="Group-44" transform="translate(409.432836, 229.883071)"><path d="M27.2409313,68.3533059 L48.5920955,133.475541 C64.5675582,102.7356 73.3779463,68.8161882 74.3712,33.8799529 L27.2409313,68.3533059 Z M45.6199164,172.289365 C45.1119164,172.289365 44.6039164,172.251424 44.0959164,172.190718 C39.7741254,171.598835 36.1726328,168.601482 34.8154388,164.458306 L3.06164776,67.5944824 C1.51490149,62.9125412 3.16779701,57.7677176 7.15597612,54.8614235 L78.5868418,2.60124706 C81.9457075,0.142658824 86.3812299,-0.267105882 90.1192,1.47818824 C93.8799164,3.24624706 96.382006,6.91895294 96.6473791,11.0697176 C97.0264836,17.0113059 97.2160358,22.3078941 97.2160358,27.2326588 C97.2160358,77.2391294 82.6508418,125.636894 55.0975284,167.197659 C52.9745433,170.407482 49.395797,172.289365 45.6199164,172.289365 L45.6199164,172.289365 Z" id="Fill-42"/></g><path d="M347.804096,278.348371 L423.291379,293.927018" fill="#FEFEFE" id="Fill-45"/><path d="M423.308818,305.313165 C422.543027,305.313165 421.769654,305.237282 420.996281,305.077929 L345.508997,289.491694 C339.359922,288.224459 335.39449,282.206988 336.668281,276.052929 C337.93449,269.891282 344.000161,265.922635 350.103743,267.205047 L425.591027,282.783694 C431.740101,284.050929 435.705534,290.0684 434.431743,296.230047 C433.324758,301.610106 428.585952,305.313165 423.308818,305.313165" fill="#2E2E30" id="Fill-47"/><path d="M253.323678,347.048459 L253.323678,423.530282" fill="#FEFEFE" id="Fill-49"/><path d="M253.325952,434.913394 C247.047982,434.913394 241.952818,429.8141 241.952818,423.531041 L241.952818,347.049218 C241.952818,340.766159 247.047982,335.666865 253.325952,335.666865 C259.603922,335.666865 264.699087,340.766159 264.699087,347.049218 L264.699087,423.531041 C264.699087,429.8141 259.603922,434.913394 253.325952,434.913394" fill="#2E2E30" id="Fill-51"/></g></g></g></svg>