<?xml version="1.0" ?><svg height="512px" version="1.1" viewBox="0 0 512 512" width="512px" xmlns="http://www.w3.org/2000/svg" xmlns:xlink="http://www.w3.org/1999/xlink"><title/><desc/><defs><polygon id="path-1" points="0.00191044776 508.411765 510.400955 508.411765 510.400955 1.58783824 0.00191044776 1.58783824"/></defs><g fill="none" fill-rule="evenodd" id="SVG" stroke="none" stroke-width="1"><g id="Tennis"><g id="2"><path d="M82.769003,85.7771706 C-12.462997,180.341759 -12.462997,333.662053 82.769003,428.226641 C178.001003,522.791229 332.403391,522.791229 427.635391,428.226641 C522.867391,333.662053 522.867391,180.341759 427.635391,85.7771706 C332.403391,-8.78741765 178.001003,-8.78741765 82.769003,85.7771706" fill="#FBD147" id="Fill-1"/><path d="M389.771081,57.5588 C415.348155,95.8642118 430.280215,141.780624 430.280215,191.187624 C430.280215,324.922682 321.101946,433.3358 186.423021,433.3358 C136.674961,433.3358 90.4268418,418.508388 51.8587224,393.102976 C95.5239164,458.4908 170.275916,501.629918 255.19914,501.629918 C389.878066,501.629918 499.056334,393.2168 499.056334,259.481741 C499.056334,175.146094 455.620394,100.917976 389.771081,57.5588" fill="#010202" id="Fill-10" opacity="0.3"/><g id="Group-5" transform="translate(0.000000, 1.998500)"><mask fill="white" id="mask-2"><use xlink:href="#path-1"/></mask><g id="Clip-4"/><path d="M255.201433,24.3468529 C195.694806,24.3468529 136.180537,46.8383824 90.8723582,91.8290294 C0.263641791,181.802735 0.263641791,328.194971 90.8723582,418.176265 C181.488716,508.149971 328.914149,508.149971 419.530507,418.176265 C510.139224,328.194971 510.139224,181.802735 419.530507,91.8290294 C374.222328,46.8383824 314.70806,24.3468529 255.201433,24.3468529 M255.201433,508.415559 C189.818269,508.415559 124.442746,483.700676 74.6641194,434.270912 C-24.8854925,335.426559 -24.8854925,174.578735 74.6641194,75.7267941 C174.213731,-23.1251471 336.189134,-23.1251471 435.738746,75.7267941 C535.288358,174.578735 535.288358,335.426559 435.738746,434.270912 C385.960119,483.700676 320.584597,508.415559 255.201433,508.415559" fill="#2E2E30" id="Fill-3" mask="url(#mask-2)"/></g><path d="M16.2854209,208.591241 C16.2930627,208.591241 69.4264358,201.602476 93.4675104,260.312653 L93.5515701,260.221594 C98.2207045,288.768535 111.494496,316.184829 133.65569,338.190712 C189.799928,393.941476 280.821301,393.941476 336.96554,338.190712 C393.109779,282.439947 393.109779,192.056476 336.96554,136.305712 C314.804346,114.299829 287.186913,101.119065 258.446137,96.4902412 L258.537839,96.3991824 C199.40566,72.5265941 206.451391,19.7580059 206.451391,19.7580059 C161.13557,28.9018294 117.9136,50.8773588 82.769003,85.7756529 C47.624406,120.681535 25.4861373,163.593006 16.2854209,208.591241" fill="#FBD147" id="Fill-6"/><path d="M103.440048,254.492476 C104.143093,255.668653 104.632167,256.989006 104.869063,258.400418 C109.354794,285.8243 122.108943,310.630241 141.76363,330.147182 C193.345719,381.352594 277.267869,381.367771 328.865242,330.147182 C380.447331,278.926594 380.447331,195.577418 328.865242,144.349241 C309.210555,124.839888 284.221899,112.175124 256.612107,107.720829 C255.160167,107.485594 253.792287,106.984771 252.5696,106.2563 C211.540824,89.0082412 197.678615,57.0769471 195.088048,34.0921824 C155.71754,44.5108294 119.915749,64.9914765 90.8693015,93.8267706 C61.7922866,122.707594 41.151809,158.311594 30.6749134,197.474476 C37.1322269,198.195359 44.5065552,199.728182 51.827391,202.475124 C67.921003,208.492594 89.8070925,222.401829 103.440048,254.492476 M235.314436,391.308359 C195.554197,391.315947 155.816884,376.291241 125.555391,346.241829 C102.928048,323.773065 88.0800478,295.339947 82.5550328,263.8943 C62.2966448,215.451006 20.0146149,219.624535 17.7679284,219.874947 C14.7952716,220.261947 11.7538388,219.487947 9.31610746,217.628829 C5.83909254,214.980535 4.18082388,210.594535 5.05198806,206.329947 C15.0321672,157.507241 39.103809,113.040182 74.6610627,77.7321235 C110.225958,42.4240647 154.999212,18.5211235 204.166496,8.6033 C207.803988,7.88241765 211.556107,8.92200588 214.268943,11.4337118 C216.974137,13.9454176 218.296167,17.6029471 217.814734,21.2528882 C217.600764,22.9830059 213.099749,65.3481235 262.160048,85.5631824 C293.804704,91.0494765 322.438496,105.785829 345.073481,128.254594 C405.596466,188.361006 405.596466,286.143006 345.073481,346.241829 C314.811988,376.283653 275.051749,391.308359 235.314436,391.308359" fill="#2E2E30" id="Fill-8"/></g></g></g></svg>