<?xml version="1.0" ?><svg height="512px" version="1.1" viewBox="0 0 512 512" width="512px" xmlns="http://www.w3.org/2000/svg" xmlns:xlink="http://www.w3.org/1999/xlink"><title/><desc/><defs/><g fill="none" fill-rule="evenodd" id="SVG" stroke="none" stroke-width="1"><g id="Badmintun"><g id="3"><path d="M31.0222222,481.595733 L28.6328889,479.2064 C4.63288889,455.2064 4.63288889,416.308622 28.6328889,392.308622 L56.9493333,363.992178 L146.236444,453.272178 L117.912889,481.595733 C93.92,505.588622 55.0151111,505.588622 31.0222222,481.595733" fill="#F05253" id="Fill-1"/><path d="M121.348267,428.384711 L96.5802667,453.152711 C74.1873778,475.5456 38.8167111,477.024711 14.6958222,457.618489 C17.6824889,465.483378 22.2976,472.871822 28.6336,479.200711 L31.0229333,481.597156 C55.0158222,505.590044 93.9207111,505.590044 117.9136,481.597156 L146.237156,453.2736 L121.348267,428.384711 Z" fill="#010202" id="Fill-6" opacity="0.3"/><g fill="#2E2E30" id="Group-5" transform="translate(0.000000, 346.664533)"><path d="M38.5607111,127.389156 C58.3509333,147.172267 90.5642667,147.186489 110.375822,127.389156 L131.154489,106.610489 L56.9500444,32.4131556 L36.1713778,53.1847111 C16.3740444,72.9891556 16.3740444,105.202489 36.1713778,124.999822 L38.5607111,127.389156 Z M74.4718222,163.556267 C56.0042667,163.556267 37.5367111,156.530489 23.4780444,142.471822 L21.0887111,140.082489 C-7.02862222,111.965156 -7.02862222,66.2193778 21.0887111,38.1020444 L49.4051556,9.7856 C53.5722667,5.61848889 60.3278222,5.61848889 64.4878222,9.7856 L153.774933,99.0727111 C157.942044,103.239822 157.942044,109.988267 153.774933,114.155378 L125.458489,142.471822 C111.399822,156.530489 92.9322667,163.556267 74.4718222,163.556267 L74.4718222,163.556267 Z" id="Fill-3"/></g><path d="M166.338133,343.888356 L101.598578,408.627911" fill="#FEFEFE" id="Fill-8"/><path d="M101.595733,419.296711 C98.8650667,419.296711 96.1344,418.258489 94.0508444,416.174933 C89.8908444,412.007822 89.8908444,405.252267 94.0508444,401.085156 L158.797511,336.3456 C162.964622,332.178489 169.713067,332.178489 173.880178,336.3456 C178.047289,340.512711 178.047289,347.261156 173.880178,351.428267 L109.140622,416.174933 C107.057067,418.258489 104.3264,419.296711 101.595733,419.296711" fill="#2E2E30" id="Fill-10"/><polygon fill="#FEFEFE" id="Fill-12" points="378.355911 131.870578 276.2688 130.647467 168.201244 342.025244 379.579022 233.957689"/><path d="M282.755556,141.386667 L192.714667,317.521778 L368.835556,227.473778 L367.818667,142.417778 L282.755556,141.386667 Z M168.209778,352.693333 C165.443556,352.693333 162.712889,351.612444 160.664889,349.564444 C157.393778,346.293333 156.604444,341.287111 158.709333,337.169778 L266.769778,125.792 C268.611556,122.186667 272.316444,119.719111 276.391111,119.975111 L378.485333,121.205333 C384.273778,121.276444 388.96,125.955556 389.024,131.751111 L390.247111,233.838222 C390.296889,237.884444 388.049778,241.617778 384.437333,243.459556 L173.059556,351.527111 C171.523556,352.309333 169.859556,352.693333 168.209778,352.693333 L168.209778,352.693333 Z" fill="#2E2E30" id="Fill-14"/><path d="M216.347022,405.821156 L130.430578,437.4656" fill="#FEFEFE" id="Fill-16"/><path d="M130.429156,448.130133 C126.091378,448.130133 122.002489,445.463467 120.423822,441.154133 C118.382933,435.621689 121.213156,429.491911 126.738489,427.458133 L212.654933,395.8208 C218.2016,393.7728 224.324267,396.617244 226.350933,402.135467 C228.391822,407.667911 225.5616,413.797689 220.036267,415.831467 L134.119822,447.4688 C132.903822,447.923911 131.652267,448.130133 130.429156,448.130133" fill="#2E2E30" id="Fill-18"/><polygon fill="#FEFEFE" id="Fill-20" points="499.559822 254.961778 460.142933 343.779556 218.827378 404.906667 402.386489 253.376"/><path d="M406.144,264.101689 L262.229333,382.907022 L452.501333,334.715022 L483.278222,265.367467 L406.144,264.101689 Z M218.823111,415.575467 C214.883556,415.575467 211.157333,413.378133 209.308444,409.730133 C207.054222,405.278578 208.184889,399.859911 212.032,396.681244 L395.598222,245.143467 C397.553778,243.529244 400.113778,242.7968 402.56,242.704356 L499.733333,244.297244 C503.310222,244.361244 506.624,246.203022 508.551111,249.218133 C510.478222,252.240356 510.762667,256.016356 509.312,259.287467 L469.895111,348.105244 C468.565333,351.099022 465.934222,353.317689 462.762667,354.121244 L221.44,415.248356 C220.565333,415.4688 219.690667,415.575467 218.823111,415.575467 L218.823111,415.575467 Z" fill="#2E2E30" id="Fill-22"/><path d="M72.7608889,379.797333 L104.405333,293.880889" fill="#FEFEFE" id="Fill-24"/><path d="M72.7623111,390.463289 C71.5392,390.463289 70.2876444,390.257067 69.0716444,389.801956 C63.5463111,387.768178 60.7160889,381.6384 62.7569778,376.105956 L94.4014222,290.189511 C96.4280889,284.664178 102.557867,281.819733 108.097422,283.874844 C113.622756,285.908622 116.460089,292.0384 114.412089,297.570844 L82.7676444,383.487289 C81.1889778,387.796622 77.1000889,390.463289 72.7623111,390.463289" fill="#2E2E30" id="Fill-26"/><polygon fill="#FEFEFE" id="Fill-28" points="255.265422 10.6666667 166.447644 50.0835556 105.320533 291.399111 256.8512 107.84"/><path d="M175.512178,57.7272889 L127.320178,247.999289 L246.125511,104.084622 L244.859733,26.9504 L175.512178,57.7272889 Z M105.311289,302.065067 C103.675733,302.065067 102.033067,301.695289 100.497067,300.913067 C96.0455111,298.658844 93.7557333,293.617067 94.9788444,288.781511 L156.105956,47.4659556 C156.909511,44.2872889 159.121067,41.6561778 162.114844,40.3335111 L250.932622,0.916622222 C254.196622,-0.526933333 257.986844,-0.2496 261.001956,1.6704 C264.017067,3.60462222 265.865956,6.91128889 265.929956,10.4881778 L267.515733,107.661511 C267.5584,110.200178 266.690844,112.674844 265.083733,114.6304 L113.545956,298.189511 C111.4624,300.713956 108.411733,302.065067 105.311289,302.065067 L105.311289,302.065067 Z" fill="#2E2E30" id="Fill-30"/><path d="M174.869333,420.700444 L88.5831111,334.414222" fill="#FEFEFE" id="Fill-32"/><path d="M174.866489,431.365689 C172.135822,431.365689 169.405156,430.327467 167.3216,428.243911 L81.0424889,341.957689 C76.8753778,337.790578 76.8753778,331.042133 81.0424889,326.875022 C85.2096,322.707911 91.9580444,322.707911 96.1251556,326.875022 L182.411378,413.154133 C186.571378,417.321244 186.571378,424.0768 182.411378,428.243911 C180.327822,430.327467 177.597156,431.365689 174.866489,431.365689" fill="#2E2E30" id="Fill-34"/><path d="M215.223467,406.945422 L103.280356,295.002311" fill="#FEFEFE" id="Fill-36"/><path d="M215.220622,417.609244 C212.489956,417.609244 209.759289,416.571022 207.675733,414.487467 L95.7397333,302.544356 C91.5726222,298.377244 91.5726222,291.6288 95.7397333,287.461689 C99.9068444,283.294578 106.655289,283.294578 110.8224,287.461689 L222.765511,399.397689 C226.925511,403.5648 226.925511,410.320356 222.765511,414.487467 C220.681956,416.571022 217.951289,417.609244 215.220622,417.609244" fill="#2E2E30" id="Fill-38"/></g></g></g></svg>