<svg id="Layer_1" data-name="Layer 1" xmlns="http://www.w3.org/2000/svg" viewBox="0 0 671 149"><defs><style>.cls-1{fill:#fff;}</style></defs><path class="cls-1" d="M0,149V0H671V149ZM175.08,71.1l.3-.12c.17.53.37,1.06.52,1.61q4.24,15.64,8.48,31.3c1.8,6.65,1.79,6.57,8.8,6.67,2.21,0,3.23-.66,3.85-2.84,3.26-11.43,6.67-22.83,10-34.23.17-.55.42-1.06.89-2.23,0,12.56.05,24.39,0,36.21,0,2.26.61,3.21,3,3.07a64.47,64.47,0,0,1,7.74,0c2.44.16,3.13-.78,3.11-3.16-.1-13-.05-26-.05-39,0-8.75-.06-17.5.05-26.24,0-2.24-.71-2.92-2.88-2.81a83.29,83.29,0,0,1-9.74,0c-2.67-.19-3.9.64-4.74,3.33-4,12.69-8.24,25.3-12.4,37.94-.21.62-.51,1.21-.93,2.21-.27-.88-.4-1.27-.52-1.65C186.57,68,182.6,54.89,178.73,41.73c-.52-1.77-1.34-2.42-3.15-2.37-3.75.1-7.5.16-11.24,0-2.42-.12-3.13.69-3.11,3.09.11,12.42.05,24.83.05,37.24,0,9.41,0,18.83,0,28.24,0,1.94.62,2.71,2.59,2.63a73.43,73.43,0,0,1,8,0c2.46.15,3.34-.63,3.31-3.22C175,95.25,175.08,83.17,175.08,71.1Zm-114.67,10c0,9,.09,17.66,0,26.32,0,2.49.85,3.22,3.18,3.09,2.57-.15,5.16,0,7.75,0,3.47,0,3.49,0,3.49-3.46q0-32.11,0-64.24c0-.41,0-.83,0-1.24.1-1.57-.55-2.25-2.2-2.21-3.33.09-6.66.08-10,0-1.61,0-2.23.57-2.2,2.19.08,3.5,0,7,0,10.5,0,5,0,10,0,15.25-5,0-9.86-.1-14.66,0-2.14.07-2.66-.68-2.63-2.71.1-7.5,0-15,.08-22.49,0-2.24-.7-2.93-2.87-2.81-3.08.15-6.17.09-9.25,0-1.63,0-2.18.59-2.18,2.2q.06,33.38,0,66.74c0,1.62.64,2.24,2.21,2.22,3.09,0,6.17-.11,9.25,0,2.22.1,2.87-.77,2.84-2.92-.1-7.91,0-15.83,0-23.74V81.14ZM519.5,66.52c0-8.08-.06-16.16,0-24.23,0-2.1-.51-3.06-2.79-2.93-3,.16-6,.14-9,0-2.07-.09-2.78.66-2.75,2.72.09,6.91,0,13.83,0,20.74,0,7.83,0,15.66,0,23.49,0,5-2.28,9-6,9.93-7.78,1.84-14-.35-14.39-10,0-.75,0-1.5,0-2.25,0-13.83-.07-27.66.06-41.48,0-2.6-.78-3.36-3.27-3.18a55.28,55.28,0,0,1-8.24,0c-2.52-.19-3.09.86-3.07,3.17.08,13.91,0,27.82.05,41.73a85.91,85.91,0,0,0,.33,9.22c1.2,11,8.48,17,19.45,17.58,3.15.15,6.33.1,9.49,0,9.77-.28,17.61-5.48,19.43-15.6a38.72,38.72,0,0,0,.63-6.45C519.55,81.52,519.5,74,519.5,66.52ZM337,74.81c0,5.33-.1,10.66,0,16,.29,12.49,8.35,20.27,20.83,20.28,3.16,0,6.34.17,9.49,0,9.16-.6,16.58-5.37,18.2-14.76.74-4.31.64-8.77.9-13.16.09-1.52-.8-2-2.19-2-3.33,0-6.66,0-10,0-1.73,0-2.29.78-2.31,2.45a30.15,30.15,0,0,1-.58,6.44c-.81,3.5-2.91,6-6.67,6.55-4.26.63-8.61.74-11.14-3.47A15.18,15.18,0,0,1,351.65,86c-.23-7.4-.12-14.82-.07-22.23.05-7.88,3.21-10.91,11-10.69,6.18.17,9,2.81,9.3,8.92.07,1.47.56,2.12,2.06,2.11,3.41,0,6.83-.06,10.24,0,1.62,0,2.32-.68,2.23-2.24-.12-2.07-.11-4.17-.41-6.22-1.12-7.85-5.12-13.38-13-15.72a42.87,42.87,0,0,0-18.06-1c-11.52,1.54-17.77,8.53-18,20.17C336.88,64.31,337,69.56,337,74.81Zm-80.75-7.39V53.17c.84-.05,1.57-.14,2.3-.14,6.33,0,12.66-.07,19,0,2.07,0,2.83-.69,2.74-2.76-.13-2.74-.14-5.5,0-8.24.1-2.08-.66-2.72-2.73-2.71q-16.62.13-33.25,0c-2,0-2.65.62-2.62,2.56.07,5.41,0,10.83,0,16.24,0,16.42,0,32.83,0,49.25,0,2.36.68,3.38,3.14,3.14,1.73-.17,3.5,0,5.25,0,9.16,0,18.33-.05,27.49,0,2.07,0,2.83-.71,2.74-2.77-.13-2.91-.09-5.83,0-8.75,0-1.61-.6-2.23-2.21-2.18-2.41.08-4.83,0-7.25,0H256.22V81.2h2.83c4.41,0,8.83-.08,13.25,0,2,0,2.89-.53,2.76-2.68a66.63,66.63,0,0,1,0-8.24c.16-2.39-.79-3-3-2.93C266.81,67.51,261.58,67.42,256.21,67.42ZM572.46,89.28c5.66-3,8-8.09,8.36-13.86a154.25,154.25,0,0,0,0-19.47A21.49,21.49,0,0,0,578,47.27c-3.09-5.53-8.46-7.6-14.49-7.77-7.24-.21-14.49-.09-21.74-.1-3.27,0-3.27,0-3.27,3.36q0,30.48,0,61c0,6.78,0,6.78,6.67,6.78,7.71,0,7.71,0,7.71-7.78V91.89c5.07-.7,5.07-.7,6.94,3.38,2,4.46,4,9,6.2,13.35a3.87,3.87,0,0,0,2.76,1.79c3.4.22,6.83.11,10.24.07,2.6,0,2.83-.4,1.77-2.77C578.08,101.65,575.33,95.6,572.46,89.28ZM610.91,53v2.86c0,17.24,0,34.48,0,51.73,0,2.13.58,3,2.82,2.92,2.74-.15,5.49,0,8.24,0,3.44,0,3.48,0,3.48-3.51q0-25.37,0-50.73c0-1,.1-2.07.16-3.24,4.73,0,9.14,0,13.55,0,1.83,0,2.53-.67,2.46-2.51-.11-3-.09-6,0-9,0-1.66-.67-2.15-2.24-2.15q-21.24.06-42.48,0c-1.84,0-2.29.83-2.26,2.43,0,2.83.09,5.67,0,8.5-.08,2.05.71,2.8,2.78,2.75C601.77,52.94,606.17,53,610.91,53ZM403.33,74.86H403c0,5.49-.13,11,0,16.48.31,11.17,6,17.94,16.89,19.45a58.26,58.26,0,0,0,15.44,0C446,109.41,451.64,103.5,452,92.73c.44-12.14.37-24.31-.06-36.45-.33-9.31-5.7-15-14.83-16.92a45.61,45.61,0,0,0-17.88-.23c-9.73,1.77-14.73,6.56-15.81,16.29C402.75,61.83,403.33,68.38,403.33,74.86ZM93.37,75h.06c0,6-.26,12,.06,18,.51,9.71,5.87,16,15.39,17.53,4.63.77,9.45.53,14.18.54,11.24,0,19.11-7.21,19.42-18.45q.5-17.73,0-35.48c-.25-9.8-5.55-16.05-15.14-17.68a62.05,62.05,0,0,0-15.88-.5C100,40,93.9,46.53,93.41,58,93.16,63.67,93.37,69.34,93.37,75Z"/><path d="M175.08,71.1c0,12.07-.07,24.15.06,36.23,0,2.59-.85,3.37-3.31,3.22a73.43,73.43,0,0,0-8,0c-2,.08-2.61-.69-2.59-2.63.07-9.41,0-18.83,0-28.24,0-12.41.06-24.82-.05-37.24,0-2.4.69-3.21,3.11-3.09,3.74.18,7.49.12,11.24,0,1.81,0,2.63.6,3.15,2.37,3.87,13.16,7.84,26.29,11.78,39.44.12.38.25.77.52,1.65.42-1,.72-1.59.93-2.21,4.16-12.64,8.41-25.25,12.4-37.94.84-2.69,2.07-3.52,4.74-3.33a83.29,83.29,0,0,0,9.74,0c2.17-.11,2.91.57,2.88,2.81-.11,8.74-.05,17.49-.05,26.24,0,13,0,26,.05,39,0,2.38-.67,3.32-3.11,3.16a64.47,64.47,0,0,0-7.74,0c-2.35.14-3-.81-3-3.07.09-11.82,0-23.65,0-36.21-.47,1.17-.72,1.68-.89,2.23-3.36,11.4-6.77,22.8-10,34.23-.62,2.18-1.64,2.87-3.85,2.84-7-.1-7,0-8.8-6.67q-4.23-15.66-8.48-31.3c-.15-.55-.35-1.08-.52-1.61Zm39,32.85.81.13a7.07,7.07,0,0,0,.36-1.53q0-27.49,0-55a2.61,2.61,0,0,0-.51-1.8c-1.52-1.28-5.7.1-6.34,2q-5,14.77-9.92,29.57l-7.36,21.84c-.55-1.43-.89-2.24-1.17-3.07C184.77,80.4,179.48,64.72,174.43,49c-.91-2.83-2.21-3.81-5.07-3.52-1.61.17-2.34.41-2.34,2.24.06,18.25,0,36.49,0,54.74a9.19,9.19,0,0,0,.29,1.62l.76,0c0-.85.1-1.71.11-2.56q0-26.11,0-52.24c0-2.51.76-3.2,3.13-2.49a3.47,3.47,0,0,1,1.68,2.09q8.34,24.83,16.58,49.71c.35,1,.82,2,1.23,3A5.77,5.77,0,0,0,192.41,99Q200.69,74.28,209,49.55c1.1-3.3,1.25-3.38,5.17-2.53Z"/><path d="M60.41,81.14H43.16v2.75c0,7.91-.06,15.83,0,23.74,0,2.15-.62,3-2.84,2.92-3.08-.14-6.16-.07-9.25,0-1.57,0-2.21-.6-2.21-2.22q0-33.37,0-66.74c0-1.61.55-2.24,2.18-2.2,3.08.08,6.17.14,9.25,0,2.17-.12,2.91.57,2.87,2.81-.12,7.49,0,15-.08,22.49,0,2,.49,2.78,2.63,2.71,4.8-.15,9.61,0,14.66,0,0-5.29,0-10.27,0-15.25,0-3.5,0-7,0-10.5,0-1.62.59-2.23,2.2-2.19,3.33.07,6.66.08,10,0,1.65,0,2.3.64,2.2,2.21,0,.41,0,.83,0,1.24q0,32.13,0,64.24c0,3.45,0,3.45-3.49,3.46-2.59,0-5.18-.11-7.75,0-2.33.13-3.22-.6-3.18-3.09C60.5,98.8,60.41,90.14,60.41,81.14Zm7.28-35.32H67v2.72c0,7.49-.06,15,0,22.49,0,2-.56,2.57-2.55,2.54q-12.73-.15-25.49,0c-1.94,0-2.59-.51-2.56-2.52.11-7.66.05-15.32,0-23,0-.8-.15-1.59-.23-2.39l-.51.08v58h.73V75H67.18v28.71l.51,0Z"/><path d="M519.5,66.52c0,7.5,0,15,0,22.49a38.72,38.72,0,0,1-.63,6.45c-1.82,10.12-9.66,15.32-19.43,15.6-3.16.09-6.34.14-9.49,0-11-.53-18.25-6.55-19.45-17.58a85.91,85.91,0,0,1-.33-9.22c0-13.91,0-27.82-.05-41.73,0-2.31.55-3.36,3.07-3.17a55.28,55.28,0,0,0,8.24,0c2.49-.18,3.29.58,3.27,3.18-.13,13.82-.06,27.65-.06,41.48,0,.75,0,1.5,0,2.25.41,9.63,6.61,11.82,14.39,10,3.74-.88,6-5,6-9.93,0-7.83,0-15.66,0-23.49,0-6.91.06-13.83,0-20.74,0-2.06.68-2.81,2.75-2.72,3,.14,6,.16,9,0,2.28-.13,2.82.83,2.79,2.93C519.44,50.36,519.5,58.44,519.5,66.52Zm-6.6-20.35-.85,0v2.94c0,12.83,0,25.65,0,38.48a19.74,19.74,0,0,1-.75,5.41c-2,6.91-7.85,10.52-16.55,10.47-10.89-.07-16.66-5.84-16.66-16.72q0-19,0-38c0-.89-.15-1.77-.23-2.66-.6.34-.75.63-.75.92,0,14.24-.18,28.49.1,42.73.11,5.85,3.1,10.42,8.54,13.13,3.58,1.77,7.4,1.8,11.24,1.62,10.07-.49,16.08-6.76,16.11-16.86.05-13,0-26,0-39C513.07,47.87,513,47,512.9,46.17Z"/><path d="M337,74.81c0-5.25-.08-10.5,0-15.74.22-11.64,6.47-18.63,18-20.17a42.87,42.87,0,0,1,18.06,1c7.86,2.34,11.86,7.87,13,15.72.3,2,.29,4.15.41,6.22.09,1.56-.61,2.27-2.23,2.24-3.41-.06-6.83,0-10.24,0-1.5,0-2-.64-2.06-2.11-.31-6.11-3.12-8.75-9.3-8.92-7.8-.22-11,2.81-11,10.69-.05,7.41-.16,14.83.07,22.23a15.18,15.18,0,0,0,1.88,7.09c2.53,4.21,6.88,4.1,11.14,3.47,3.76-.56,5.86-3,6.67-6.55a30.15,30.15,0,0,0,.58-6.44c0-1.67.58-2.47,2.31-2.45,3.33,0,6.66,0,10,0,1.39,0,2.28.51,2.19,2-.26,4.39-.16,8.85-.9,13.16-1.62,9.39-9,14.16-18.2,14.76-3.15.21-6.33,0-9.49,0-12.48,0-20.54-7.79-20.83-20.28C336.86,85.47,337,80.14,337,74.81Zm41.47-16.73a17,17,0,0,0,.15-2.74c-.63-4.35-3.43-6.86-7.3-8.4C367,45.23,362.53,45.2,358,45.47c-8.92.55-14.13,5.46-14.37,14.35-.27,10.23-.22,20.48,0,30.72.1,4.84,1.73,9.41,6.51,11.58a27.23,27.23,0,0,0,22.52.12c5.14-2.15,7.84-10.45,6.11-14.71-.28,1.84-.48,3.26-.71,4.67-.91,5.49-4,9.29-9.45,10.3a44.06,44.06,0,0,1-11.86.52c-7.68-.69-12-5.22-12.2-12.93-.27-9.9-.29-19.82,0-29.72.26-8.89,5.33-13.6,14.3-14,1.91-.08,3.83-.07,5.73,0,7.18.37,11.08,3.56,13,10.47C377.62,57.1,377.82,57.26,378.43,58.08Z"/><path d="M256.21,67.42c5.37,0,10.6.09,15.82,0,2.25-.06,3.2.54,3,2.93a66.63,66.63,0,0,0,0,8.24c.13,2.15-.76,2.73-2.76,2.68-4.42-.11-8.84,0-13.25,0h-2.83V96.86h14.55c2.42,0,4.84.06,7.25,0,1.61,0,2.25.57,2.21,2.18-.07,2.92-.11,5.84,0,8.75.09,2.06-.67,2.78-2.74,2.77-9.16-.08-18.33,0-27.49,0-1.75,0-3.52-.14-5.25,0-2.46.24-3.15-.78-3.14-3.14.07-16.42,0-32.83,0-49.25,0-5.41.05-10.83,0-16.24,0-1.94.66-2.57,2.62-2.56q16.64.12,33.25,0c2.07,0,2.83.63,2.73,2.71-.14,2.74-.13,5.5,0,8.24.09,2.07-.67,2.79-2.74,2.76-6.34-.1-12.67,0-19,0-.73,0-1.46.09-2.3.14Zm13.12,7.17,0-1H249.58V46.35h24.21c-.24-.63-.47-.78-.69-.78-7.75,0-15.5,0-23.25-.07-1.77,0-1.76,1-1.76,2.29q0,27,0,54c0,1.76.57,2.32,2.29,2.3,7.25-.06,14.5,0,21.75,0a8.78,8.78,0,0,0,1.66-.3l-.07-.65H249.51V75C256.19,74.5,262.8,75.26,269.33,74.59Z"/><path d="M572.46,89.28c2.87,6.32,5.62,12.37,8.36,18.43,1.06,2.37.83,2.75-1.77,2.77-3.41,0-6.84.15-10.24-.07a3.87,3.87,0,0,1-2.76-1.79c-2.21-4.38-4.16-8.89-6.2-13.35-1.87-4.08-1.87-4.08-6.94-3.38v10.83c0,7.78,0,7.78-7.71,7.78-6.67,0-6.67,0-6.67-6.78q0-30.48,0-61c0-3.35,0-3.36,3.27-3.36,7.25,0,14.5-.11,21.74.1,6,.17,11.4,2.24,14.49,7.77A21.49,21.49,0,0,1,580.79,56a154.25,154.25,0,0,1,0,19.47C580.45,81.19,578.12,86.24,572.46,89.28ZM571.31,104l.85-.47c-3-6.07-6-12.14-9-18.33.83-.27,1.44-.54,2.07-.67,5.31-1.09,8.48-4.28,8.84-9.69s.3-10.64.32-16c0-8.35-4.66-13.16-13.09-13.36-4.33-.1-8.66.08-13-.09-2.27-.1-3,.56-3,2.89.09,17.66,0,35.32.06,53,0,.84.13,1.68.2,2.51l.75,0V85.37c4.79,0,9.18.09,13.57,0a3,3,0,0,1,3.19,2.08c2.24,4.83,4.62,9.59,7,14.38C570.43,102.55,570.89,103.28,571.31,104Z"/><path d="M610.91,53c-4.74,0-9.14-.08-13.54,0-2.07.05-2.86-.7-2.78-2.75.1-2.83.06-5.67,0-8.5,0-1.6.42-2.44,2.26-2.43q21.24.08,42.48,0c1.57,0,2.29.49,2.24,2.15-.08,3-.1,6,0,9,.07,1.84-.63,2.54-2.46,2.51-4.41-.08-8.82,0-13.55,0-.06,1.17-.16,2.21-.16,3.24q0,25.36,0,50.73c0,3.47,0,3.5-3.48,3.51-2.75,0-5.5-.11-8.24,0-2.24.12-2.83-.79-2.82-2.92.07-17.25,0-34.49,0-51.73Zm6.68,50.76.91,0c.07-.86.2-1.71.2-2.57,0-3.16,0-6.33,0-9.49,0-14.17,0-28.33,0-42.5,0-2.07.6-2.76,2.68-2.67,3.5.15,7,.06,10.5,0,.82,0,1.64-.16,2.46-.24l-.07-.55H601.33l0,.74h16.28Z"/><path d="M403.33,74.86c0-6.48-.58-13,.13-19.44,1.08-9.73,6.08-14.52,15.81-16.29a45.61,45.61,0,0,1,17.88.23c9.13,2,14.5,7.61,14.83,16.92.43,12.14.5,24.31.06,36.45-.4,10.77-6,16.68-16.73,18.09a58.26,58.26,0,0,1-15.44,0c-10.93-1.51-16.58-8.28-16.89-19.45-.15-5.49,0-11,0-16.48Zm6.62-.13c0,2.58,0,5.16,0,7.74s-.06,5.34.08,8c.42,7.52,4.93,12.68,12.32,13.81a43.53,43.53,0,0,0,8.47.2c8.2-.36,14.18-5.33,14.58-13.53.55-11.2.4-22.46-.09-33.66-.29-6.51-4.84-10.79-11.16-12.06a31.19,31.19,0,0,0-5.21-.53c-12.53-.36-19.44,4.47-19,18.3C410.05,66.9,410,70.82,410,74.73Z"/><path d="M93.37,75c0-5.66-.21-11.33,0-17,.49-11.48,6.55-18,18-19.06a62.05,62.05,0,0,1,15.88.5c9.59,1.63,14.89,7.88,15.14,17.68q.48,17.73,0,35.48c-.31,11.24-8.18,18.48-19.42,18.45-4.73,0-9.55.23-14.18-.54C99.36,108.94,94,102.7,93.49,93c-.32-6-.06-12-.06-18ZM136,74.62H136c0-5.16.17-10.32,0-15.47C135.6,50.78,130.5,45.6,122.15,45a54.09,54.09,0,0,0-8,0c-8.12.58-13.19,5-13.6,13.14-.53,10.62-.62,21.3-.17,31.92.35,8.44,4.58,12.9,12.13,14.18a37.75,37.75,0,0,0,8,.26c9.76-.43,15.4-6.33,15.51-16.14C136.08,83.78,136,79.2,136,74.62Z"/><path class="cls-1" d="M214.13,104V47c-3.92-.85-4.07-.77-5.17,2.53Q200.7,74.29,192.41,99a5.77,5.77,0,0,1-1.55,2.54c-.41-1-.88-2-1.23-3q-8.28-24.86-16.58-49.71a3.47,3.47,0,0,0-1.68-2.09c-2.37-.71-3.13,0-3.13,2.49q0,26.11,0,52.24c0,.85-.07,1.71-.11,2.56l-.76,0a9.19,9.19,0,0,1-.29-1.62c0-18.25,0-36.49,0-54.74,0-1.83.73-2.07,2.34-2.24,2.86-.29,4.16.69,5.07,3.52,5,15.75,10.34,31.43,15.56,47.14.28.83.62,1.64,1.17,3.07l7.36-21.84q5-14.79,9.92-29.57c.64-1.91,4.82-3.29,6.34-2a2.61,2.61,0,0,1,.51,1.8q0,27.5,0,55a7.07,7.07,0,0,1-.36,1.53Z"/><path class="cls-1" d="M67.69,45.82v57.9l-.51,0V75H36.47v28.72h-.73v-58l.51-.08c.08.8.22,1.59.23,2.39,0,7.67.07,15.33,0,23,0,2,.62,2.54,2.56,2.52q12.75-.14,25.49,0c2,0,2.57-.58,2.55-2.54-.1-7.5,0-15,0-22.49V45.83Z"/><path class="cls-1" d="M512.9,46.17c.06.85.17,1.7.17,2.54,0,13,0,26,0,39,0,10.1-6,16.37-16.11,16.86-3.84.18-7.66.15-11.24-1.62-5.44-2.71-8.43-7.28-8.54-13.13-.28-14.24-.11-28.49-.1-42.73,0-.29.15-.58.75-.92.08.89.23,1.77.23,2.66q0,19,0,38c0,10.88,5.77,16.65,16.66,16.72,8.7,0,14.52-3.56,16.55-10.47a19.74,19.74,0,0,0,.75-5.41c.06-12.83,0-25.65,0-38.48V46.21Z"/><path class="cls-1" d="M378.43,58.08c-.61-.82-.81-1-.86-1.18-1.9-6.91-5.8-10.1-13-10.47-1.9-.1-3.82-.11-5.73,0-9,.37-14,5.08-14.3,14-.29,9.9-.27,19.82,0,29.72.21,7.71,4.52,12.24,12.2,12.93a44.06,44.06,0,0,0,11.86-.52c5.48-1,8.54-4.81,9.45-10.3.23-1.41.43-2.83.71-4.67,1.73,4.26-1,12.56-6.11,14.71a27.23,27.23,0,0,1-22.52-.12c-4.78-2.17-6.41-6.74-6.51-11.58-.22-10.24-.27-20.49,0-30.72.24-8.89,5.45-13.8,14.37-14.35,4.52-.27,9-.24,13.27,1.47,3.87,1.54,6.67,4.05,7.3,8.4A17,17,0,0,1,378.43,58.08Z"/><path class="cls-1" d="M269.33,74.59c-6.53.67-13.14-.09-19.82.41v28.09H273.7l.07.65a8.78,8.78,0,0,1-1.66.3c-7.25,0-14.5,0-21.75,0-1.72,0-2.3-.54-2.29-2.3q.08-27,0-54c0-1.26,0-2.3,1.76-2.29,7.75.06,15.5,0,23.25.07.22,0,.45.15.69.78H249.58V73.58h19.73Z"/><path class="cls-1" d="M571.31,104c-.42-.75-.88-1.48-1.25-2.24-2.34-4.79-4.72-9.55-7-14.38a3,3,0,0,0-3.19-2.08c-4.39.13-8.78,0-13.57,0v18.42l-.75,0c-.07-.83-.2-1.67-.2-2.51,0-17.65,0-35.31-.06-53,0-2.33.7-3,3-2.89,4.33.17,8.66,0,13,.09,8.43.2,13.14,5,13.09,13.36,0,5.32,0,10.66-.32,16s-3.53,8.6-8.84,9.69c-.63.13-1.24.4-2.07.67,3.05,6.19,6,12.26,9,18.33Zm-24.7-57V83.92c5.49,0,10.82.29,16.11-.07,6.94-.48,10.27-4.21,10.47-11.21.14-5.08.12-10.16,0-15.24-.12-5.47-3.36-9.73-8.71-10.24C558.65,46.61,552.72,47,546.61,47Z"/><path class="cls-1" d="M617.59,103.78V46.56H601.31l0-.74h32.92l.07.55c-.82.08-1.64.23-2.46.24-3.5,0-7,.12-10.5,0-2.08-.09-2.69.6-2.68,2.67.08,14.17,0,28.33,0,42.5,0,3.16,0,6.33,0,9.49,0,.86-.13,1.71-.2,2.57Z"/><path class="cls-1" d="M410,74.73c0-3.91.1-7.83,0-11.74-.42-13.83,6.49-18.66,19-18.3a31.19,31.19,0,0,1,5.21.53c6.32,1.27,10.87,5.55,11.16,12.06.49,11.2.64,22.46.09,33.66-.4,8.2-6.38,13.17-14.58,13.53a43.53,43.53,0,0,1-8.47-.2C415,103.14,410.46,98,410,90.46c-.14-2.65-.07-5.32-.08-8S410,77.31,410,74.73Zm.86-.13h0c0,4.83,0,9.66,0,14.49,0,.41,0,.83.07,1.24.54,7.08,5.05,12,12.05,12.79a40.93,40.93,0,0,0,9.19,0c7.33-.87,12.19-6,12.35-13.38.21-10.15.23-20.32,0-30.47-.18-7.46-4.46-12.12-11.53-13.18a40,40,0,0,0-6.48-.21c-10.56.15-15.58,5.22-15.65,15.74C410.79,65.94,410.81,70.27,410.81,74.6Z"/><path class="cls-1" d="M136,74.62c0,4.58,0,9.16,0,13.73-.11,9.81-5.75,15.71-15.51,16.14a37.75,37.75,0,0,1-8-.26C105,103,100.78,98.49,100.43,90.05c-.45-10.62-.36-21.3.17-31.92C101,50,106.08,45.57,114.2,45a54.09,54.09,0,0,1,8,0c8.35.6,13.45,5.78,13.79,14.15.21,5.15,0,10.31,0,15.47Zm-1.41.08H135c0-4.67.09-9.34,0-14-.18-8.34-3.89-13.37-11.25-14.47a38,38,0,0,0-11.42.11c-6.53,1-10.5,5-10.79,11.59-.47,11.13-.52,22.31,0,33.43.33,7,5.06,11.06,12.07,11.8a40.44,40.44,0,0,0,9.2-.08c6.62-.82,11.1-5,11.75-11.68C135.06,85.88,134.63,80.27,134.63,74.7Z"/><path d="M546.61,47c6.11,0,12-.43,17.88.12,5.35.51,8.59,4.77,8.71,10.24.11,5.08.13,10.16,0,15.24-.2,7-3.53,10.73-10.47,11.21-5.29.36-10.62.07-16.11.07Zm6.32,30.5c3-.18,5.66-.19,8.27-.54,3.27-.43,4.93-1.88,5.16-5.12a118.62,118.62,0,0,0,0-13.2,4.23,4.23,0,0,0-3.92-4.21,77.28,77.28,0,0,0-8.2-.49c-.43,0-1.27.85-1.28,1.32C552.9,62.54,552.93,69.78,552.93,77.54Z"/><path d="M410.81,74.6c0-4.33,0-8.66,0-13,.07-10.52,5.09-15.59,15.65-15.74a40,40,0,0,1,6.48.21c7.07,1.06,11.35,5.72,11.53,13.18.25,10.15.23,20.32,0,30.47-.16,7.35-5,12.51-12.35,13.38a40.93,40.93,0,0,1-9.19,0c-7-.77-11.51-5.71-12.05-12.79,0-.41-.07-.83-.07-1.24,0-4.83,0-9.66,0-14.49Zm7.13.31h-.37c0,4.16-.13,8.33,0,12.49.22,6.08,3.34,9.35,8.88,9.63,7,.34,10.4-2,11-8.58.56-6,.35-12.13.36-18.2a68.28,68.28,0,0,0-.43-9.71c-.74-5.13-3.77-7.43-9.22-7.52-6.19-.11-9.52,1.89-10.14,7.2C417.5,65.06,417.94,70,417.94,74.91Z"/><path d="M134.63,74.7c0,5.57.43,11.18-.11,16.7-.65,6.66-5.13,10.86-11.75,11.68a40.44,40.44,0,0,1-9.2.08c-7-.74-11.74-4.84-12.07-11.8-.52-11.12-.47-22.3,0-33.43.29-6.62,4.26-10.54,10.79-11.59a38,38,0,0,1,11.42-.11c7.36,1.1,11.07,6.13,11.25,14.47.11,4.66,0,9.33,0,14ZM108,74.8c0,4.41-.19,8.83,0,13.23.32,6.13,3.64,9,9.88,9s9.76-2.83,10-9q.42-13.09,0-26.2c-.19-6.17-3.67-8.89-10.27-8.86-6.09,0-9.31,2.95-9.6,9C107.85,66.31,108,70.56,108,74.8Z"/><path class="cls-1" d="M552.93,77.54c0-7.76,0-15,.05-22.24,0-.47.85-1.33,1.28-1.32a77.28,77.28,0,0,1,8.2.49,4.23,4.23,0,0,1,3.92,4.21,118.62,118.62,0,0,1,0,13.2c-.23,3.24-1.89,4.69-5.16,5.12C558.59,77.35,555.94,77.36,552.93,77.54Z"/><path class="cls-1" d="M417.94,74.91c0-4.9-.44-9.85.12-14.68.62-5.31,3.95-7.31,10.14-7.2,5.45.09,8.48,2.39,9.22,7.52a68.28,68.28,0,0,1,.43,9.71c0,6.07.2,12.17-.36,18.2-.61,6.57-4,8.92-11,8.58-5.54-.28-8.66-3.55-8.88-9.63-.16-4.16,0-8.33,0-12.49Z"/><path class="cls-1" d="M108,74.8c0-4.24-.16-8.49,0-12.72.29-6.1,3.51-9,9.6-9,6.6,0,10.08,2.69,10.27,8.86q.4,13.1,0,26.2c-.2,6.14-3.68,9-10,9s-9.56-2.9-9.88-9C107.83,83.63,108,79.21,108,74.8Z"/></svg>