<?xml version="1.0" ?><svg height="512px" version="1.1" viewBox="0 0 512 512" width="512px" xmlns="http://www.w3.org/2000/svg" xmlns:xlink="http://www.w3.org/1999/xlink"><title/><desc/><defs><polygon id="path-1" points="424.395703 426.088945 424.395703 1.86706567 1.09819627 1.86706567 1.09819627 426.088945 424.395703 426.088945"/><polygon id="path-3" points="84.0245577 86.8696673 0 86.8696673 0 2.66093213 84.0245577 2.66093213 84.0245577 86.8696673"/></defs><g fill="none" fill-rule="evenodd" id="SVG" stroke="none" stroke-width="1"><g id="Table-tennis"><g id="1" transform="translate(11.000000, 0.000000)"><path d="M404.716763,371.029702 C321.097655,454.829674 193.883209,463.21385 120.582729,389.754825 C47.2822491,316.2958 55.6483291,188.813161 139.274386,105.013189 C222.893495,21.2062535 350.100992,12.8220781 423.401472,86.2811028 C496.701952,159.740127 488.335872,287.229731 404.716763,371.029702" fill="#D28F52" id="Fill-1"/><path d="M423.404251,86.2838882 C350.103771,12.8248636 222.896274,21.2090389 139.270217,105.009011 C90.0604343,154.332195 66.9425371,218.773357 71.1672686,278.437488 L231.665371,439.282739 C291.200731,443.516608 355.502811,420.348709 404.719543,371.032488 C488.338651,287.225552 496.704731,159.742913 423.404251,86.2838882" fill="#F05253" id="Fill-6"/><path d="M466.323493,160.095967 C467.080887,216.515061 443.907401,276.046884 397.768887,322.285193 C333.20971,386.984008 242.69067,406.684035 171.037001,378.51627 L172.385024,379.874172 L143.451173,408.870605 C218.259493,460.846922 329.235127,446.66903 404.717458,371.030399 C464.475173,311.136468 485.779493,228.945088 466.323493,160.095967" fill="#010202" id="Fill-26" opacity="0.3"/><g id="Group-5" transform="translate(59.245714, 24.044477)"><mask fill="white" id="mask-2"><use xlink:href="#path-1"/></mask><g id="Clip-4"/><path d="M239.225307,22.7014788 C186.367525,22.7014788 130.723365,44.9292925 87.3920731,88.354307 C7.97685029,167.948264 -0.410075429,289.059209 68.7073646,358.326146 C137.817856,427.593083 258.681307,419.188017 338.09653,339.601023 C417.518702,260.000103 425.905627,138.896121 356.788187,69.6222209 C325.373696,38.1467454 283.258405,22.7014788 239.225307,22.7014788 M186.256347,426.088945 C136.852005,426.088945 89.4280046,408.638161 53.9694446,373.095943 C-23.277824,295.681593 -14.8908983,161.318916 72.6541531,73.5845097 C160.192256,-14.1498965 294.27189,-22.5688899 371.526107,54.8524236 C448.773376,132.266774 440.38645,266.629451 352.841399,354.370821 C305.479936,401.834723 244.492325,426.088945 186.256347,426.088945" fill="#2E2E30" id="Fill-3" mask="url(#mask-2)"/></g><g fill="#2E2E30" id="Group-10" transform="translate(59.245714, 24.044477)"><path d="M176.993902,405.0533 C235.132599,407.984976 293.528393,384.266951 338.103479,339.602416 C417.518702,260.001495 425.905627,138.890551 356.788187,69.6236136 C287.663799,0.349713033 166.807296,8.76174278 87.3920731,88.3556997 C42.8100389,133.034162 19.1501531,191.667681 22.0893989,249.806784 L176.993902,405.0533 Z M186.652416,426.187828 C181.663342,426.187828 176.674267,426.013738 171.678245,425.658594 C169.176759,425.484504 166.821193,424.405146 165.049307,422.622465 L4.55815314,261.777214 C2.77931886,260.001495 1.70229029,257.640835 1.528576,255.133938 C-3.10612114,189.696982 22.8189989,123.528847 72.6541531,73.5789389 C160.192256,-14.1485038 294.27189,-22.5674971 371.526107,54.8538164 C448.773376,132.268166 440.38645,266.630843 352.841399,354.372213 C306.814062,400.499105 246.959067,426.187828 186.652416,426.187828 L186.652416,426.187828 Z" id="Fill-8"/></g><path d="M64.3618377,488.133791 C52.0211749,500.501146 32.0023406,500.501146 19.6616777,488.133791 C7.31406629,475.766436 7.31406629,455.704302 19.6616777,443.336947 C32.0023406,430.962629 52.0211749,430.962629 64.3618377,443.336947 C76.7025006,455.704302 76.7025006,475.766436 64.3618377,488.133791" fill="#72553F" id="Fill-11"/><g id="Group-15" transform="translate(0.000000, 420.969721)"><mask fill="white" id="mask-4"><use xlink:href="#path-3"/></mask><g id="Clip-14"/><path d="M42.0117577,23.5447709 C36.5849234,23.5447709 31.1580891,25.6129603 27.0306377,29.7563028 C18.7687863,38.0290605 18.7687863,51.503628 27.0306377,59.7763858 C35.2924891,68.0630707 48.7310263,68.0630707 56.9928777,59.7763858 C65.2547291,51.503628 65.2547291,38.0290605 56.9928777,29.7563028 C52.8654263,25.6129603 47.438592,23.5447709 42.0117577,23.5447709 M42.0117577,86.8717564 C31.2484206,86.8717564 20.4781349,82.7632319 12.2927177,74.546183 C-4.09896229,58.1260124 -4.09896229,31.4066762 12.2927177,14.9865055 C28.6705006,-1.44759233 55.3530149,-1.44759233 71.7307977,14.9865055 C88.1224777,31.4066762 88.1224777,58.1260124 71.7307977,74.546183 C63.5453806,82.7632319 52.7750949,86.8717564 42.0117577,86.8717564" fill="#2E2E30" id="Fill-13" mask="url(#mask-4)"/></g><polygon fill="#D28F52" id="Fill-16" points="66.0809143 486.4103 21.3807543 441.613456 127.686949 335.077328 172.387109 379.874172"/><path d="M36.1221486,441.610671 L66.0843886,471.637717 L157.645714,379.87835 L127.690423,349.84434 L36.1221486,441.610671 Z M66.0843886,496.859879 L66.0843886,496.859879 C63.3188571,496.859879 60.6645029,495.752667 58.7119543,493.795895 L14.0117943,448.999051 C9.93993143,444.918381 9.93993143,438.30296 14.0117943,434.22229 L120.317989,327.693126 C122.270537,325.72939 124.924891,324.629141 127.690423,324.629141 C130.449006,324.629141 133.10336,325.72939 135.055909,327.693126 L179.756069,372.489969 C183.827931,376.57064 183.827931,383.179097 179.756069,387.259767 L73.4498743,493.795895 C71.4973257,495.752667 68.8429714,496.859879 66.0843886,496.859879 L66.0843886,496.859879 Z" fill="#2E2E30" id="Fill-18"/><path d="M242.452334,118.913232 C217.687625,143.731506 177.531831,143.731506 152.760174,118.913232 C127.995465,94.0949592 127.995465,53.8523103 152.760174,29.0270735 C177.531831,4.20880031 217.687625,4.20880031 242.452334,29.0270735 C267.217042,53.8523103 267.217042,94.0949592 242.452334,118.913232" fill="#E9E9E9" id="Fill-20"/><path d="M242.452334,29.0291626 C240.402505,26.9749004 238.213705,25.1574005 235.969317,23.4373912 C244.606391,46.1317661 239.853568,72.7745027 221.606619,91.0609184 C198.891739,113.824929 163.259465,115.642429 138.397477,96.6457262 C141.482642,104.758321 146.242414,112.3765 152.760174,118.915321 C177.531831,143.733595 217.687625,143.733595 242.452334,118.915321 C267.217042,94.0900847 267.217042,53.8474358 242.452334,29.0291626" fill="#010202" id="Fill-24" opacity="0.3"/><path d="M197.608338,20.8838387 C184.037778,20.8838387 170.467218,26.0577941 160.127744,36.4126685 C139.469641,57.1224172 139.469641,90.8192814 160.127744,111.52903 C170.140635,121.556615 183.454098,127.078751 197.608338,127.078751 C211.762578,127.078751 225.076041,121.556615 235.088933,111.52903 C255.747035,90.8192814 255.747035,57.1224172 235.088933,36.4126685 C224.749458,26.0577941 211.178898,20.8838387 197.608338,20.8838387 M197.608338,147.934735 C178.694327,147.934735 159.787264,140.727408 145.389824,126.298827 C116.601893,97.4416658 116.601893,50.5000329 145.389824,21.6428712 C174.177755,-7.21429041 221.038921,-7.21429041 249.826853,21.6428712 C278.614784,50.5000329 278.614784,97.4416658 249.826853,126.298827 C235.429413,140.727408 216.52235,147.934735 197.608338,147.934735" fill="#2E2E30" id="Fill-22"/></g></g></g></svg>