<?xml version="1.0" ?>
<!DOCTYPE svg  PUBLIC '-//W3C//DTD SVG 1.1//EN'  'http://www.w3.org/Graphics/SVG/1.1/DTD/svg11.dtd'>
<svg height="10in" style="shape-rendering:geometricPrecision; text-rendering:geometricPrecision; image-rendering:optimizeQuality; fill-rule:evenodd; clip-rule:evenodd" viewBox="0 0 6 6" width="10in" xml:space="preserve" xmlns="http://www.w3.org/2000/svg" xmlns:xlink="http://www.w3.org/1999/xlink"><defs><style type="text/css">
   <![CDATA[
    .str0 {stroke:#666666;stroke-width:0.05}
    .str1 {stroke:#666666;stroke-width:0.05;stroke-linecap:round;stroke-linejoin:round}
    .fil4 {fill:none}
    .fil2 {fill:#689F38}
    .fil6 {fill:#D32F2F}
    .fil7 {fill:#EF5350}
    .fil3 {fill:white}
    .fil0 {fill:#00695C;fill-rule:nonzero}
    .fil1 {fill:#00796B;fill-rule:nonzero}
    .fil5 {fill:#666666;fill-rule:nonzero}
   ]]>
  </style></defs><g id="Layer_x0020_1"><path class="fil0" d="M3.53147 4.11769c0,-0.0589094 -0.0290157,-0.106669 -0.0648071,-0.106669 -0.0357913,0 -0.0648071,0.0477598 -0.0648071,0.106669l0 1.17561c0,0.0589094 0.0290157,0.106669 0.0648071,0.106669 0.0357913,0 0.0648071,-0.0477598 0.0648071,-0.106669l0 -1.17561z"/><path class="fil1" d="M1.32028 3.4265c0,-0.0589094 -0.0290157,-0.106669 -0.0648071,-0.106669 -0.0357913,0 -0.0648071,0.0477598 -0.0648071,0.106669l0 1.17561c0,0.0589094 0.0290157,0.106669 0.0648071,0.106669 0.0357913,0 0.0648071,-0.0477598 0.0648071,-0.106669l0 -1.17561z"/><path class="fil1" d="M5.71815 3.4265c0,-0.0589094 -0.0290157,-0.106669 -0.0648071,-0.106669 -0.0357913,0 -0.0648071,0.0477598 -0.0648071,0.106669l0 1.17561c0,0.0589094 0.0290157,0.106669 0.0648071,0.106669 0.0357913,0 0.0648071,-0.0477598 0.0648071,-0.106669l0 -1.17561z"/><path class="fil2" d="M3.46667 2.02794c0.679197,0 1.29647,0.113469 1.74539,0.296917 0.47035,0.192205 0.76128,0.463764 0.76128,0.76911 0,0.305346 -0.290929,0.576906 -0.76128,0.76911 -0.448921,0.183449 -1.06619,0.296917 -1.74539,0.296917 -0.679197,0 -1.29647,-0.113469 -1.74539,-0.296917 -0.47035,-0.192205 -0.76128,-0.463764 -0.76128,-0.76911 0,-0.305346 0.290929,-0.576906 0.76128,-0.76911 0.448921,-0.183449 1.06619,-0.296917 1.74539,-0.296917z"/><path class="fil3" d="M3.46667 2.13333c0.621394,0 1.18613,0.102252 1.59685,0.267567 0.430319,0.173201 0.696488,0.417913 0.696488,0.693075 0,0.275161 -0.266169,0.519874 -0.696488,0.693075 -0.410717,0.165315 -0.975453,0.267567 -1.59685,0.267567 -0.621394,0 -1.18613,-0.102252 -1.59685,-0.267567 -0.430319,-0.173201 -0.696488,-0.417913 -0.696488,-0.693075 0,-0.275161 0.266169,-0.519874 0.696488,-0.693075 0.410717,-0.165315 0.975453,-0.267567 1.59685,-0.267567z"/><g id="_337179824"><rect class="fil4" height="10" id="_337180016" width="10"/><rect class="fil4" height="5.12" id="_337179392" width="5.12" x="0.853331" y="0.853331"/></g><line class="fil4 str0" x1="3.46667" x2="3.46667" y1="2.13428" y2="4.05436"/><path class="fil5" d="M4.08635 2.18001c0.00701181,-0.0118622 0.0030748,-0.0271693 -0.0087874,-0.0341811 -0.0118622,-0.00701181 -0.0271693,-0.0030748 -0.0341811,0.0087874l-1.10889 1.86371c-0.00701181,0.0118622 -0.0030748,0.0271693 0.0087874,0.0341811 0.0118622,0.00701181 0.0271693,0.0030748 0.0341811,-0.0087874l1.10889 -1.86371z"/><path class="fil5" d="M4.88799 2.35469c0.0119173,-0.00690157 0.0159843,-0.0221654 0.00908268,-0.0340827 -0.00690157,-0.0119173 -0.0221654,-0.0159843 -0.0340827,-0.00908268l-2.69813 1.55777c-0.0119173,0.00690157 -0.0159843,0.0221654 -0.00908268,0.0340827 0.00690157,0.0119173 0.0221654,0.0159843 0.0340827,0.00908268l2.69813 -1.55777z"/><path class="fil5" d="M5.75683 3.17149c0.0138071,0 0.025,-0.0111929 0.025,-0.025 0,-0.0138071 -0.0111929,-0.025 -0.025,-0.025l-4.58025 0c-0.0138071,0 -0.025,0.0111929 -0.025,0.025 0,0.0138071 0.0111929,0.025 0.025,0.025l4.58025 0z"/><path class="fil5" d="M4.74348 3.91246c0.0119173,0.00690157 0.0271811,0.00283465 0.0340827,-0.00908268 0.00690157,-0.0119173 0.00283465,-0.0271811 -0.00908268,-0.0340827l-2.69814 -1.55777c-0.0119173,-0.00690157 -0.0271811,-0.00283465 -0.0340827,0.00908268 -0.00690157,0.0119173 -0.00283465,0.0271811 0.00908268,0.0340827l2.69814 1.55777z"/><line class="fil4 str1" x1="3.97735" x2="2.88996" y1="4.03103" y2="2.1476"/><path class="fil6" d="M3.46667 2.41865c0.497083,0 0.949035,0.0682008 1.27789,0.178457 0.358571,0.120224 0.58035,0.295343 0.58035,0.496862 0,0.20152 -0.22178,0.376638 -0.58035,0.496862 -0.328854,0.110256 -0.780807,0.178457 -1.27789,0.178457 -0.497083,0 -0.949035,-0.0682008 -1.27789,-0.178457 -0.358571,-0.120224 -0.58035,-0.295343 -0.58035,-0.496862 0,-0.20152 0.22178,-0.376638 0.58035,-0.496862 0.328854,-0.110256 0.780807,-0.178457 1.27789,-0.178457z"/><path class="fil7" d="M4.65745 2.76313c-0.302929,-0.101571 -0.723791,-0.164394 -1.19078,-0.164394 -0.466992,0 -0.887854,0.0628228 -1.19078,0.164394 -0.273217,0.0916024 -0.442209,0.209122 -0.442209,0.330839 0,0.121717 0.168992,0.239236 0.442209,0.330839 0.302929,0.101571 0.723791,0.164394 1.19078,0.164394 0.466992,0 0.887854,-0.0628228 1.19078,-0.164394 0.273217,-0.0916024 0.442209,-0.209122 0.442209,-0.330839 0,-0.121717 -0.168992,-0.239236 -0.442209,-0.330839z"/></g></svg>