<?xml version="1.0" ?><svg height="512px" version="1.1" viewBox="0 0 512 512" width="512px" xmlns="http://www.w3.org/2000/svg" xmlns:xlink="http://www.w3.org/1999/xlink"><title/><desc/><defs/><g fill="none" fill-rule="evenodd" id="SVG" stroke="none" stroke-width="1"><g id="Volleyball"><g id="9"><path d="M499.175546,257.116488 C499.175546,123.381429 389.997278,14.9683118 255.318352,14.9683118 C120.639427,14.9683118 11.4611582,123.381429 11.4611582,257.116488 C11.4611582,390.851547 120.639427,499.264665 255.318352,499.264665 C389.997278,499.264665 499.175546,390.851547 499.175546,257.116488" fill="#5B8BAA" id="Fill-1"/><path d="M222.741397,380.253059 C199.678472,415.781176 168.729218,443.121588 133.737457,461.864529 C133.737457,461.910059 133.729815,461.955588 133.729815,462.001118 C133.729815,463.564294 133.859725,465.089529 133.913218,466.637529 C157.801457,480.607471 183.156919,490.138294 209.01674,495.336235 C248.417815,476.654 283.272024,447.295118 308.673337,408.170176 C345.820084,350.947294 355.548084,284.026647 341.265576,222.539176 C312.807546,226.758235 285.954293,235.848941 261.599904,248.953824 C261.661039,293.997588 249.151427,339.572529 222.741397,380.253059" fill="#5B8BAA" id="Fill-6"/><path d="M160.582304,479.926047 C151.549707,476.010518 142.608812,471.723165 133.912454,466.639047 C133.858961,465.091047 133.729051,463.558224 133.729051,461.995047 C133.729051,461.949518 133.736693,461.911576 133.736693,461.866047 C160.612872,447.471165 185.058961,427.961812 205.424334,403.603576 C134.370961,382.933224 73.6263642,330.513694 45.5580657,256.3994 C35.1728716,228.975518 30.1674985,200.861106 29.9458866,173.179224 C33.9349015,161.918282 38.8562149,151.013988 44.4652896,140.458753 L43.387797,137.385518 C23.1064836,172.708753 11.460394,213.548635 11.460394,257.112694 C11.460394,357.383635 72.8316179,443.411459 160.3072,480.191635 L160.582304,479.926047 Z" fill="#FEFEFE" id="Fill-14"/><path d="M308.671045,408.173212 C283.269731,447.298153 248.400239,476.657035 208.991522,495.324094 C249.393672,503.451094 290.911522,501.174624 329.640119,489.276271 C351.893015,472.597329 371.639403,451.843506 387.62603,427.219682 C428.58603,364.123506 436.273672,289.227624 415.113552,222.838153 C402.879045,220.941094 390.369433,219.848388 377.584716,219.848388 C365.243224,219.848388 353.115701,220.781741 341.263284,222.542212 C355.553433,284.022094 345.817791,350.950329 308.671045,408.173212" fill="#E7C162" id="Fill-30"/><path d="M253.777767,253.402047 C290.076275,232.109459 332.38123,219.854459 377.590066,219.854459 C421.843678,219.854459 463.277469,231.661753 499.048693,252.127224 C498.452633,222.829047 492.621946,194.813282 482.435439,168.952576 C445.273409,146.187871 401.531797,133.007106 354.664693,133.007106 C295.479021,133.007106 241.229946,153.958224 198.993767,188.773047 C213.551379,213.836988 232.204991,235.539341 253.777767,253.402047" fill="#5B8BAA" id="Fill-22"/><path d="M198.99606,188.776082 C241.232239,153.953671 295.481313,133.010141 354.659343,133.010141 C401.541731,133.010141 445.283343,146.198494 482.437731,168.978376 C467.429254,130.862671 442.998448,97.4364941 411.949851,71.5682 C385.776716,62.0297882 357.509731,56.7939059 328.004776,56.7939059 C268.093134,56.7939059 213.263284,78.2837882 170.813134,113.872612 C173.373134,126.962318 176.926567,140.021671 181.817313,152.929259 C186.593433,165.548494 192.424119,177.462024 198.99606,188.776082" fill="#E7C162" id="Fill-26"/><path d="M391.284155,56.7916294 C416.86123,95.0970412 431.79329,141.013453 431.79329,190.420453 C431.79329,324.155512 322.615021,432.568629 187.936096,432.568629 C138.188036,432.568629 91.9399164,417.741218 53.371797,392.335806 C97.036991,457.723629 171.788991,500.862747 256.712215,500.862747 C391.39114,500.862747 500.569409,392.449629 500.569409,258.714571 C500.569409,174.378924 457.133469,100.150806 391.284155,56.7916294" fill="#010202" id="Fill-35" opacity="0.3"/><g fill="#2E2E30" id="Group-5" transform="translate(0.000000, 3.088171)"><path d="M255.320645,23.2647706 C127.175451,23.2647706 22.9261373,126.783476 22.9261373,254.030594 C22.9261373,381.270124 127.175451,484.796418 255.320645,484.796418 C383.465839,484.796418 487.715152,381.270124 487.715152,254.030594 C487.715152,126.783476 383.465839,23.2647706 255.320645,23.2647706 M255.320645,507.561124 C114.535928,507.561124 0.000764179104,393.821065 0.000764179104,254.030594 C0.000764179104,114.232535 114.535928,0.500064706 255.320645,0.500064706 C396.105361,0.500064706 510.640525,114.232535 510.640525,254.030594 C510.640525,393.821065 396.105361,507.561124 255.320645,507.561124" id="Fill-3"/></g><path d="M152.887785,463.977094 C170.31871,472.749094 188.636084,479.2598 207.526591,483.3878 C244.81089,464.955976 276.394412,436.887094 299.037039,402.003976 C331.346531,352.232741 343.000263,293.545329 332.301755,235.631918 C311.645994,239.668859 291.762054,246.460329 272.97089,255.884918 C271.763487,302.279388 257.794293,347.277624 232.370054,386.417741 C212.073457,417.681271 184.807546,444.255271 152.887785,463.977094 M209.01674,506.714035 C208.252561,506.714035 207.496024,506.638153 206.739487,506.486388 C179.167904,500.946976 152.712024,490.839447 128.097815,476.444565 C124.735427,474.479212 122.611009,470.943094 122.465815,467.073094 L122.397039,465.638918 C122.328263,464.432388 122.267128,463.218271 122.267128,461.996565 C122.267128,457.815447 124.582591,453.831624 128.28886,451.843506 C162.715128,433.411682 192.044322,406.526565 213.105099,374.086859 C237.39071,336.692035 250.19071,293.416329 250.137218,248.964447 C250.129576,244.783329 252.429755,240.928506 256.136024,238.940388 C282.171606,224.940094 310.247546,215.629329 339.57674,211.281271 C345.567904,210.401035 351.092919,214.195153 352.437875,219.977388 C368.080621,287.315388 355.953099,356.337976 318.301994,414.334859 C292.663785,453.839212 256.579248,485.398682 213.953337,505.598565 C212.402054,506.334624 210.713218,506.714035 209.01674,506.714035" fill="#2E2E30" id="Fill-8"/><path d="M242.406782,342.995582 C182.525707,318.174465 132.663021,269.875347 108.018245,204.798641 C91.5196179,161.226994 88.5622448,115.925229 96.9605731,73.3704059 C66.3093493,100.748759 43.4069015,135.206935 29.9420657,173.178465 C30.1636776,200.860347 35.1766925,228.974759 45.5618866,256.398641 C73.6225433,330.512935 134.36714,382.932465 205.420513,403.610406 C211.572155,396.249818 217.387558,388.494641 222.744454,380.253818 C230.546722,368.226465 236.996394,355.736229 242.406782,342.995582" fill="#E7C162" id="Fill-10"/><path d="M41.4253851,175.079318 C41.8762507,201.501553 46.8663403,227.506435 56.2886687,252.395847 C81.3537433,318.565259 133.982758,368.518612 201.383355,390.441024 C205.609266,385.053376 209.544788,379.574671 213.105863,374.088376 C218.225863,366.2042 222.956131,357.720553 227.243176,348.766435 C166.827176,320.530612 120.922937,271.214671 97.2945194,208.801435 C84.800191,175.8002 79.4203701,140.772906 81.3537433,105.889788 C64.1902806,126.423553 50.6108179,149.886376 41.4253851,175.079318 M205.418221,414.988965 C204.340728,414.988965 203.263236,414.8372 202.193385,414.526082 C124.34646,391.8752 63.3420418,335.699494 34.8305194,260.409024 C24.2237134,232.378082 18.7139821,203.064729 18.4770866,173.273318 C18.4694448,171.952965 18.6834149,170.6402 19.1266388,169.395729 C33.3174448,129.367788 57.5801313,93.2326118 89.2935642,64.9133176 C92.9616239,61.6352 98.3261612,61.0584941 102.613206,63.4715529 C106.892609,65.8846118 109.146937,70.7562588 108.199355,75.5596118 C99.9462209,117.454259 103.591355,160.760318 118.752669,200.795847 C141.525206,260.917435 187.001504,307.691318 246.821445,332.497259 C249.633624,333.658259 251.857385,335.8892 253.011296,338.689259 C254.165206,341.481729 254.149922,344.623259 252.965445,347.415729 C247.035415,361.370494 240.111952,374.498141 232.370818,386.419259 C227.006281,394.690435 220.90049,402.916082 214.229206,410.883729 C212.013087,413.524435 208.765325,414.988965 205.418221,414.988965" fill="#2E2E30" id="Fill-12"/><path d="M24.8511045,227.496571 C23.5749254,237.292982 22.9253731,247.188041 22.9253731,257.113453 C22.9253731,336.638159 63.7019701,409.212041 129.474866,451.205335 C150.268179,439.914041 168.952358,425.754394 185.221731,408.961629 C115.505672,383.472747 61.2413134,330.135041 34.8312836,260.406747 C30.7429254,249.608688 27.4187463,238.620924 24.8511045,227.496571 M160.309493,491.574747 C158.796418,491.574747 157.275701,491.278806 155.839045,490.671747 C61.1725373,450.871453 0,359.190394 0,257.113453 C0,213.192747 11.5620299,169.841159 33.4328358,131.748218 C35.6489552,127.870629 39.897791,125.586571 44.4370149,126.049453 C48.8998209,126.459218 52.7207164,129.418629 54.2108657,133.6301 L55.2883582,136.710924 C56.3429254,139.6931 56.0983881,142.978806 54.6082388,145.778865 C49.3736119,155.613218 44.9490149,165.470335 41.4261493,175.084629 C41.8770149,201.506865 46.8671045,227.504159 56.2894328,252.393571 C82.2409552,320.930512 137.766209,372.060041 208.643821,392.684865 C212.342448,393.754806 215.25397,396.615571 216.377313,400.280688 C217.508299,403.945806 216.698269,407.922041 214.237612,410.873865 C196.745552,431.802218 176.196776,449.596629 153.011582,463.915629 C156.771343,465.751982 160.783284,467.595924 165.16203,469.492982 C168.66197,471.010629 171.168478,474.152159 171.856239,477.885571 C172.544,481.611394 171.313672,485.435865 168.57791,488.084159 L168.295164,488.349747 C166.117254,490.451688 163.228657,491.574747 160.309493,491.574747" fill="#2E2E30" id="Fill-16"/><path d="M181.815021,152.926224 C166.241051,111.7904 162.786961,69.1293412 169.488812,28.6764588 C142.085349,39.5428118 117.730961,54.8179294 96.9376478,73.3863412 C88.5622448,115.933576 91.5272597,161.235341 108.018245,204.7994 C132.663021,269.876106 182.518066,318.175224 242.406782,342.996341 C253.869469,316.004988 260.044036,287.753988 261.243797,259.510576 C226.435439,232.936576 198.405349,196.733106 181.815021,152.926224" fill="#FEFEFE" id="Fill-18"/><path d="M107.484848,79.3264118 C100.164012,120.044882 104.046042,161.954706 118.75649,200.791294 C140.138221,257.285706 181.572012,301.988 236.119116,327.750059 C243.539296,307.497059 248.017385,286.386588 249.476967,264.790471 C214.171893,236.471176 187.127594,199.304 171.079833,156.931294 C157.844251,121.964706 152.601982,84.4484706 155.651057,47.3116471 C138.25834,55.9546471 122.126519,66.6768235 107.484848,79.3264118 M242.393027,354.377176 C240.925803,354.377176 239.435654,354.096412 237.983713,353.496941 C172.279594,326.255176 122.302281,274.875235 97.2906985,208.804471 C80.631594,164.823059 76.6196537,117.244824 85.6904597,71.207 C86.1718925,68.7787647 87.4251463,66.5781765 89.2744597,64.9315294 C111.58849,45.0048235 137.142639,29.2440588 165.241504,18.1045294 C169.070042,16.5792941 173.448788,17.2318824 176.673624,19.7967059 C179.89846,22.3691176 181.48031,26.4667647 180.807833,30.5188824 C174.212967,70.2964118 178.2784,111.234941 192.545624,148.918118 C207.798639,189.204059 233.971773,224.33 268.229922,250.486647 C271.194937,252.747941 272.860848,256.284059 272.70037,259.994706 C271.408907,290.211059 264.775833,319.623059 252.961624,347.418765 C251.119952,351.766824 246.871116,354.377176 242.393027,354.377176" fill="#2E2E30" id="Fill-20"/><path d="M214.022113,191.452453 C225.431307,209.307571 239.217099,225.424982 255.142591,239.5391 C292.572084,219.187453 334.731845,208.472865 377.587009,208.472865 C415.207546,208.472865 452.415427,216.804747 486.360263,232.7021 C484.319904,213.496276 479.895307,194.730571 473.124681,176.662982 C437.330531,155.537335 396.454591,144.390218 354.661636,144.390218 C303.859009,144.390218 254.301994,161.038806 214.022113,191.452453 M253.77471,264.785159 C251.153576,264.785159 248.547725,263.897335 246.430949,262.144453 C223.35274,243.037276 204.049576,220.264982 189.064024,194.464982 C186.27477,189.661629 187.375188,183.560688 191.669875,180.016982 C237.352501,142.364159 295.231427,121.625512 354.661636,121.625512 C401.99489,121.625512 448.250651,134.639335 488.454113,159.270747 C490.563248,160.560747 492.198591,162.510924 493.107964,164.810159 C504.035725,192.552747 509.896979,221.850924 510.515964,251.900335 C510.600024,256.005571 508.445039,259.837629 504.891606,261.924394 C501.338173,264.018747 496.92886,264.041512 493.329576,261.992688 C458.154412,241.868688 418.134352,231.237571 377.587009,231.237571 C336.061516,231.237571 295.261994,242.293629 259.605397,263.206806 C257.801934,264.269159 255.784501,264.785159 253.77471,264.785159" fill="#2E2E30" id="Fill-24"/><path d="M183.448072,118.308694 C185.839952,129.068812 188.835534,139.145988 192.541803,148.919635 C195.384549,156.416812 198.754579,163.982282 202.5984,171.502224 C246.401146,139.244635 299.8784,121.624753 354.6624,121.624753 C390.173803,121.624753 425.081504,128.954988 457.284012,143.023576 C443.972012,119.849106 426.632788,98.9814588 406.114579,81.5740471 C381.034221,72.6806353 354.769385,68.1732235 328.007833,68.1732235 C275.501087,68.1732235 224.438639,85.9296941 183.448072,118.308694 M198.991475,200.162988 C198.318997,200.162988 197.638878,200.102282 196.974042,199.980871 C193.642221,199.388988 190.745982,197.370518 189.057146,194.464224 C181.873863,182.080224 175.829206,169.4534 171.083654,156.932812 C166.2464,144.154224 162.36437,130.396753 159.559833,116.0474 C158.772728,111.995282 160.247594,107.836929 163.418937,105.181047 C209.38431,66.6328118 267.83637,45.4085176 328.007833,45.4085176 C358.147057,45.4085176 387.713146,50.6140471 415.896072,60.8809294 C417.141684,61.3286353 418.295594,61.9964 419.311952,62.8462824 C452.064669,90.1335765 477.580609,125.403694 493.108728,164.832165 C494.912191,169.392694 493.567236,174.583047 489.784549,177.716988 C485.994221,180.850929 480.6144,181.230341 476.419057,178.665518 C439.845445,156.242282 397.739176,144.389459 354.6624,144.389459 C300.573803,144.389459 247.891296,163.2614 206.31231,197.537459 C204.241385,199.244812 201.650818,200.162988 198.991475,200.162988" fill="#2E2E30" id="Fill-28"/><g fill="#2E2E30" id="Group-34" transform="translate(191.044776, 207.970524)"><path d="M53.5445015,280.423994 C80.3519045,281.865759 107.42677,278.701465 133.294233,271.014582 C154.408501,254.897171 172.458412,235.410582 186.947248,213.085994 C223.276322,157.122759 233.424621,89.0031706 215.191307,25.1178176 C197.477636,22.8868765 180.742113,22.7427 163.945457,24.3514059 C175.461636,87.7283471 162.615785,151.902053 127.257218,206.362818 C108.02283,236.002465 82.9042627,261.172641 53.5445015,280.423994 M66.2069493,303.530171 C49.2574567,303.530171 32.3232478,301.860759 15.6717851,298.514347 C10.8421731,297.543053 7.17411343,293.612347 6.57805373,288.755876 C5.96671045,283.891818 8.55727761,279.1947 13.0124418,277.092759 C51.8098149,258.706465 84.6542328,229.984994 107.992263,194.031935 C142.258054,141.240582 153.2928,78.4175824 139.048501,17.1274059 C138.337815,14.0389941 138.949158,10.7836412 140.744979,8.1657 C142.5408,5.54017059 145.368263,3.7797 148.531964,3.30922941 C173.665815,-0.424182353 199.067128,-0.522829412 225.828681,3.62034706 C230.131009,4.28811176 233.6768,7.31581765 234.991188,11.4362294 C258.046472,83.7521118 247.554293,161.743994 206.219845,225.416876 C189.896979,250.5567 169.470472,272.418406 145.505815,290.387347 C144.451248,291.184112 143.251487,291.791171 141.982949,292.178171 C117.399307,299.728465 91.7993075,303.530171 66.2069493,303.530171" id="Fill-32"/></g></g></g></g></svg>