<svg xmlns="http://www.w3.org/2000/svg" xmlns:xlink="http://www.w3.org/1999/xlink" version="1.0" x="0px" y="0px" viewBox="0 0 48 60" enable-background="new 0 0 48 48" xml:space="preserve"><path d="M47.998,23.98c-0.001-0.61-0.031-1.213-0.077-1.813c-0.004-0.055-0.008-0.109-0.012-0.164  C46.892,9.693,36.569,0.002,23.999,0.002c-0.692,0-1.376,0.036-2.053,0.094c-0.014,0.001-0.026,0.002-0.039,0.003  c-7.391,0.64-13.828,4.631-17.778,10.45c0,0.001-0.001,0.001-0.002,0.002c-0.002,0.003-0.004,0.006-0.006,0.01  c-0.305,0.449-0.59,0.914-0.865,1.385c-0.048,0.083-0.096,0.165-0.143,0.248c-0.549,0.969-1.031,1.979-1.444,3.024  c-0.016,0.041-0.032,0.082-0.048,0.123c-0.41,1.058-0.746,2.15-1.005,3.273c-0.01,0.042-0.02,0.084-0.028,0.126  c-0.241,1.073-0.409,2.174-0.5,3.297c-0.009,0.11-0.018,0.221-0.025,0.332C0.026,22.908,0.001,23.451,0.001,24  c0,0.008,0,0.016,0,0.021c0.001,0.032,0.002,0.064,0.003,0.096C0.03,29.623,1.919,34.69,5.067,38.73  c0.008,0.011,0.011,0.022,0.02,0.033c0.034,0.044,0.072,0.083,0.106,0.127c0.673,0.848,1.401,1.648,2.181,2.398  c0.022,0.022,0.046,0.044,0.069,0.066c4.309,4.111,10.138,6.643,16.556,6.643c13.218,0,23.955-10.715,23.997-23.922  c0.001-0.013,0.001-0.026,0.002-0.039c0.001-0.016,0.001-0.031,0-0.045C47.998,23.988,47.998,23.984,47.998,23.98z M41.8,36.93  l-7.554,0.064l-4.136-5.585l2.833-8.672l6.576-2.28l6.453,4.497C45.783,29.423,44.264,33.541,41.8,36.93z M41.37,10.498  l-2.443,8.047l-6.616,2.294l-7.338-5.353l-0.02-6.976l6.924-5.061C35.655,4.898,38.928,7.357,41.37,10.498z M16.014,3.492  l6.938,5.019l0.021,6.978l-7.456,5.399l-6.925-2.221l-2.526-7.412C8.534,7.783,11.983,5.062,16.014,3.492z M13.541,37.139  l-7.188,0.008c-2.558-3.431-4.135-7.635-4.328-12.201l5.873-4.4l7.129,2.287l2.749,8.518L13.541,37.139z M17.298,44.958l-2.15-6.624  l4.231-5.784l9.09,0.014l4.184,5.647l-2.147,6.811c-2.056,0.635-4.24,0.977-6.506,0.977C21.661,45.998,19.411,45.632,17.298,44.958z  "/><text x="0" y="63" fill="#000000" font-size="5px" font-weight="bold" font-family="'Helvetica Neue', Helvetica, Arial-Unicode, Arial, Sans-serif">Created by karacis studio</text><text x="0" y="68" fill="#000000" font-size="5px" font-weight="bold" font-family="'Helvetica Neue', Helvetica, Arial-Unicode, Arial, Sans-serif">from the Noun Project</text></svg>