<?xml version="1.0" encoding="utf-8"?><svg version="1.1" id="Layer_1" xmlns="http://www.w3.org/2000/svg" xmlns:xlink="http://www.w3.org/1999/xlink" x="0px" y="0px" viewBox="0 0 122.88 122.88" style="enable-background:new 0 0 122.88 122.88" xml:space="preserve"><g><path d="M61.44,0c16.97,0,32.33,6.88,43.44,18s18,26.48,18,43.44c0,16.97-6.88,32.33-18,43.44c-11.12,11.12-26.48,18-43.44,18 c-16.97,0-32.33-6.88-43.44-18C6.88,93.77,0,78.41,0,61.44C0,44.47,6.88,29.11,18,18C29.11,6.88,44.47,0,61.44,0L61.44,0z M72.65,70.74c-4.92,9.57-9.84,17.3-16.63,23.49c-6.73,6.14-15.2,10.69-27.2,13.95c5.52,3.86,11.75,6.77,18.46,8.48 c2.69-0.09,5.4-0.55,8.06-1.31c9.79-2.79,18.88-9.55,25.52-16.59C87.32,91.9,91.37,85,91.3,81.5c-2.87-2.59-5.87-4.77-9.01-6.56 C79.21,73.19,76,71.8,72.65,70.74L72.65,70.74z M24.5,104.85c0.21-0.14,0.45-0.25,0.71-0.31c12.58-3.09,21.17-7.51,27.82-13.58 c6.12-5.59,10.69-12.65,15.24-21.39c-4.75-1.07-9.74-1.53-14.96-1.47c-6.39,6.22-13.3,10.85-20.69,13.99 c-0.04,0.02-0.08,0.03-0.12,0.05c-6.92,2.92-14.26,4.53-21.99,4.91c2.75,5.46,6.35,10.42,10.63,14.7 C22.22,102.82,23.34,103.86,24.5,104.85L24.5,104.85z M94.77,78.67c0.08,0.06,0.15,0.13,0.22,0.2c4.58,4.28,8.81,9.55,12.67,15.93 c3.88-5.37,6.85-11.45,8.68-18c-7.58-13.43-16.87-21.75-26.89-26.58C79.42,45.38,68.6,44,57.98,44.48 c-1.73,5.38-2.83,11.68-3.08,19.19c10.8,0.09,20.68,2.35,29.58,7.43C88.08,73.15,91.51,75.66,94.77,78.67L94.77,78.67z M95.04,85.2 c-1.52,4.6-5.45,10.74-10.96,16.59c-6.29,6.68-14.71,13.14-23.94,16.63c0.43,0.01,0.87,0.02,1.3,0.02 c15.74,0,29.99-6.38,40.3-16.69c1.03-1.03,2.03-2.1,2.98-3.21C101.72,93.36,98.49,88.94,95.04,85.2L95.04,85.2z M59.65,39.99 c10.68-0.27,21.54,1.32,31.72,6.23c9.71,4.68,18.75,12.36,26.34,24.28c0.47-2.95,0.72-5.98,0.72-9.06c0-8.9-2.04-17.32-5.68-24.83 c-5.7-4.39-12.29-7.92-19.06-10.4c-7.02-2.57-14.2-4.02-20.78-4.15c-0.04,0-0.07,0-0.11,0C67.57,26.77,62.91,32.37,59.65,39.99 L59.65,39.99z M77.78,17.94c5.69,0.58,11.64,1.99,17.44,4.11c4.17,1.53,8.28,3.44,12.18,5.68c-1.72-2.34-3.61-4.54-5.66-6.59 c-4.13-4.13-8.88-7.62-14.11-10.33c-0.49,0.34-1.16,0.81-2.14,1.51C82.9,14.15,80.31,15.99,77.78,17.94L77.78,17.94z M21.07,81.17 c-5.49-10.03-8.53-20.51-8.32-31.58c0.16-8.54,2.26-17.39,6.64-26.63C10.11,33.1,4.45,46.61,4.45,61.44 c0,7.51,1.45,14.68,4.09,21.24C12.85,82.59,17.03,82.09,21.07,81.17L21.07,81.17z M29.36,14.32c-0.02,0.03-0.03,0.05-0.05,0.08 c-8.19,12.53-11.93,24.22-12.14,35.25c-0.2,10.61,2.84,20.67,8.3,30.34c1.8-0.56,3.57-1.2,5.31-1.94c0.03-0.02,0.07-0.03,0.1-0.05 c2.36-1,4.67-2.17,6.92-3.5c-5.56-11.57-6.85-24.97-3.28-38.09C37.56,25.26,44.1,14.31,54.5,4.87C45.26,5.99,36.7,9.32,29.36,14.32 L29.36,14.32z M61.84,4.45c-0.06,0.06-0.13,0.13-0.21,0.18c-12.18,9.59-19.62,21.16-22.83,32.94c-3.23,11.9-2.15,24.02,2.75,34.52 c3.07-2.13,6.03-4.59,8.89-7.4c0.72-33.49,16.77-44.86,32.5-55.99L83,8.67C76.47,5.99,69.33,4.5,61.84,4.45L61.84,4.45z"/></g></svg>